{
.appVersion = "3260";
.formatVersion = 3;
DisplayStrings = (
"",
"",
g,
"ma/g.ss01 nus magnus"
);
classes = (
{
code = "A B D E F H I J K L M N O P Q R S U Z Aacute Abreve Acircumflex Adieresis Agrave Amacron Aogonek Aring Atilde Dcaron Dcroat Eacute Ecaron Ecircumflex Edieresis Edotaccent Egrave Emacron Eogonek Etilde Hbar Hcircumflex IJ Iacute Icircumflex Idieresis Idotaccent Igrave Imacron Itilde Nacute Ncaron Ncommaaccent Ntilde Racute Rcaron Rcommaaccent Sacute Scaron Scedilla Scircumflex Scommaaccent Oacute Ocircumflex Odieresis Ograve Ohungarumlaut Omacron Oslash Otilde Uacute Ucircumflex Udieresis Ugrave Uhungarumlaut Umacron Uogonek Uring Utilde Zacute Zcaron Zdotaccent Jacute Jcircumflex
";
name = left_ortho;
},
{
code = "W V Y T T_T Wacute Wcircumflex Wdieresis Wgrave Yacute Ycircumflex Ydieresis Ygrave Ytilde Tcaron Tcedilla Tcommaaccent
";
name = right_overhang;
},
{
code = "W V Y T T_T Wacute Wcircumflex Wdieresis Wgrave Yacute Ycircumflex Ydieresis Ygrave Ytilde Tcaron Tcedilla Tcommaaccent";
name = left_overhang;
},
{
code = "A H I J M N O Q U Z Aacute Abreve Acircumflex Adieresis Agrave Amacron Aogonek Aring Atilde Hbar Hcircumflex Iacute Icircumflex Idieresis Idotaccent Igrave Imacron Itilde Jacute Nacute Ncaron Ncommaaccent Ntilde Oacute Ocircumflex Odieresis Ograve Ohungarumlaut Omacron Oslash Otilde Uacute Ucircumflex Udieresis Ugrave Uhungarumlaut Umacron Uogonek Uring Utilde Zacute Zcaron Zdotaccent
";
name = right_ortho;
},
{
code = "t ";
name = trigger_special_h;
}
);
customParameters = (
{
name = "Use Typo Metrics";
value = 1;
}
);
date = "2024-04-19 11:50:45 +0000";
familyName = Brokken;
featurePrefixes = (
{
automatic = 1;
code = "languagesystem DFLT dflt;

languagesystem latn dflt;
languagesystem latn AZE;
languagesystem latn CRT;
languagesystem latn KAZ;
languagesystem latn TAT;
languagesystem latn TRK;
languagesystem latn ROM;
languagesystem latn MOL;
languagesystem latn NLD;
";
name = Languagesystems;
}
);
features = (
{

glyphs = (
{
glyphname = A;
kernLeft = A;
kernRight = A;
lastChange = "2024-05-09 18:02:53 +0000";
layers = (
{
anchors = (
{
name = bottom;
pos = (482,17);
},
{
name = ogonek;
pos = (546,8);
},
{
name = top;
pos = (340,714);
}
);
hints = (
{
horizontal = 1;
origin = (3,9);
target = down;
type = TopGhost;
},
{
place = (90.5,139.5);
type = Stem;
},
{
place = (409,168);
type = Stem;
},
{
origin = (0,5);
target = (0,1,1,0);
type = Stem;
},
{
place = (403.5,173.5);
type = Stem;
}
);
layerId = m01;
shapes = (
{
closed = 1;
nodes = (
(218,19,l),
(218,485,l),
(385,660,l),
(303,711,l),
(70,622,l),
(83,123,l),
(37,71,l),
(54,0,l),
(198,0,l)
);
},
{
closed = 1;
nodes = (
(372,217,l),
(442,302,l),
(427,360,l),
(49,249,l),
(30,162,l),
(64,151,l)
);
},
{
closed = 1;
nodes = (
(538,706,l),
(280,678,l),
(181,520,l),
(515,568,l),
(580,684,l)
);
},
{
closed = 1;
nodes = (
(580,684,l),
(422,520,l),
(417,457,l),
(424,163,l),
(434,14,l),
(482,0,l),
(598,24,l),
(583,550,l),
(614,582,l),
(614,662,l)
);
},
{
closed = 1;
nodes = (
(613,80,l),
(594,126,l),
(442,154,l),
(407,110,l),
(416,0,l),
(603,0,l)
);
},
{
closed = 1;
nodes = (
(52,487,l),
(104,472,l),
(70,622,l),
(41,601,l)
);
}
);
width = 643;
}
);
metricLeft = B;
unicode = 65;
},
{
glyphname = AE;
kernLeft = A;
kernRight = E;
lastChange = "2024-05-07 16:49:39 +0000";
layers = (
{
anchors = (
{
name = top;
pos = (510,714);
}
);
layerId = m01;
shapes = (
{
closed = 1;
nodes = (
(237,-5,l),
(225,469,l),
(403,660,l),
(285,714,l),
(88,622,l),
(101,136,l),
(66,18,l),
(124,-70,l)
);
},
{
closed = 1;
nodes = (
(365,192,l),
(422,282,l),
(406,370,l),
(70,270,l),
(30,166,l),
(57,126,l)
);
},
{
closed = 1;
nodes = (
(602,662,l),
(566,696,l),
(557,706,l),
(298,678,l),
(196,492,l),
(534,568,l),
(591,673,l)
);
},
{
closed = 1;
nodes = (
(591,673,l),
(557,706,l),
(566,696,l),
(403,641,l),
(414,167,l),
(424,18,l),
(478,-7,l),
(586,24,l),
(573,510,l),
(602,662,l)
);
},
{
closed = 1;
nodes = (
(414,-24,l),
(718,-24,l),
(858,130,l),
(842,186,l),
(581,119,l),
(573,519,l),
(689,714,l),
(634,752,l),
(400,663,l),
(413,177,l),
(380,8,l)
);
},
{
closed = 1;
nodes = (
(675,274,l),
(821,386,l),
(805,475,l),
(415,375,l),
(462,331,l),
(471,290,l)
);
},
{
closed = 1;
nodes = (
(748,548,l),
(882,670,l),
(866,758,l),
(476,658,l),
(415,548,l)
);
},
{
closed = 1;
nodes = (
(373,658,l),
(381,549,l),
(431,515,l),
(479,521,l),
(682,722,l)
);
}
);
width = 898;
}
);
metricLeft = A;
metricRight = E;
unicode = 198;
},
{
glyphname = B;
kernLeft = A;
lastChange = "2024-05-09 18:13:45 +0000";
layers = (
{
layerId = m01;
shapes = (
{
closed = 1;
nodes = (
(106,44,l),
(263,80,l),
(249,519,l),
(398,657,l),
(339,711,l),
(106,622,l),
(118,203,l),
(86,65,l)
);
},
{
closed = 1;
nodes = (
(485,-1,l),
(585,25,l),
(552,142,l),
(205,133,l),
(124,63,l),
(144,0,l)
);
},
{
closed = 1;
nodes = (
(419,302,l),
(478,405,l),
(475,450,l),
(92,348,l),
(51,244,l),
(78,205,l)
);
},
{
closed = 1;
nodes = (
(628,258,l),
(558,386,l),
(433,346,l),
(537,131,l),
(585,25,l)
);
},
{
closed = 1;
nodes = (
(558,386,l),
(648,584,l),
(596,717,l),
(319,666,l),
(174,521,l),
(479,561,l),
(374,306,l)
);
},
{
closed = 1;
nodes = (
(30,647,l),
(38,538,l),
(89,505,l),
(137,510,l),
(339,711,l)
);
}
);
width = 656;
}
);
unicode = 66;
},
{
glyphname = C;
kernLeft = O;
lastChange = "2024-05-07 16:49:31 +0000";
layers = (
{
anchors = (
{
name = bottom;
pos = (273,0);
},
{
name = top;
pos = (273,714);
}
);
layerId = m01;
shapes = (
{
closed = 1;
nodes = (
(20,441,l),
(84,35,l),
(292,35,l),
(132,490,l),
(252,538,l),
(355,662,l),
(269,694,l),
(84,596,l)
);
},
{
closed = 1;
nodes = (
(527,125,l),
(506,193,l),
(422,161,l),
(206,60,l),
(84,35,l),
(133,-20,l),
(356,-30,l)
);
},
{
closed = 1;
nodes = (
(322,564,l),
(453,494,l),
(539,538,l),
(539,626,l),
(436,630,l)
);
},
{
closed = 1;
nodes = (
(333,114,l),
(415,78,l),
(508,70,l),
(544,174,l),
(532,246,l),
(373,222,l)
);
},
{
closed = 1;
nodes = (
(398,702,l),
(146,603,l),
(70,498,l),
(120,460,l),
(539,626,l),
(442,679,l)
);
}
);
width = 560;
}
);
unicode = 67;
},
{
glyphname = D;
kernLeft = A;
kernRight = O;
lastChange = "2024-05-09 18:31:52 +0000";
layers = (
{
anchors = (
{
name = top;
pos = (304,714);
}
);
layerId = m01;
shapes = (
{
closed = 1;
nodes = (
(410,0,l),
(628,232,l),
(638,521,l),
(410,700,l),
(280,700,l),
(252,549,l),
(410,554,l),
(477,554,l),
(454,292,l),
(413,116,l),
(126,143,l),
(304,0,l)
);
},
{
closed = 1;
nodes = (
(121,128,l),
(263,184,l),
(253,597,l),
(222,554,l),
(110,491,l),
(110,189,l),
(97,39,l)
);
},
{
closed = 1;
nodes = (
(226,546,l),
(440,619,l),
(280,700,l),
(68,700,l),
(16,558,l),
(66,522,l)
);
},
{
closed = 1;
nodes = (
(77,149,l),
(47,98,l),
(83,0,l),
(304,0,l),
(361,47,l),
(298,120,l),
(126,143,l)
);
}
);
width = 668;
}
);
unicode = 68;
},
{
glyphname = Dcroat;
kernLeft = A;
kernRight = O;
lastChange = "2024-05-07 16:49:31 +0000";
layers = (
{
layerId = m01;
shapes = (
{
ref = D;
},
{
closed = 1;
nodes = (
(39,325,l),
(67,286,l),
(281,286,l),
(323,372,l),
(315,402,l),
(43,410,l)
);
}
);
width = 663;
}
);
unicode = 272;
},
{
glyphname = Eth;
kernLeft = A;
kernRight = O;
lastChange = "2024-05-07 16:49:39 +0000";
layers = (
{
layerId = m01;
shapes = (
{
ref = D;
},
{
closed = 1;
nodes = (
(20,325,l),
(48,286,l),
(338,316,l),
(380,402,l),
(372,433,l),
(24,410,l)
);
}
);
width = 668;
}
);
metricLeft = D;
metricRight = D;
unicode = 208;
},
{
glyphname = E;
kernLeft = A;
kernRight = E;
lastChange = "2024-05-07 16:49:39 +0000";
layers = (
{
anchors = (
{
name = bottom;
pos = (253,0);
},
{
name = ogonek;
pos = (467,8);
},
{
name = top;
pos = (299,738);
},
{
name = topleft;
pos = (2,680);
}
);
layerId = m01;
shapes = (
{
closed = 1;
nodes = (
(106,-7,l),
(434,-8,l),
(573,147,l),
(375,111,l),
(283,117,l),
(250,117,l),
(252,139,l),
(250,494,l),
(381,690,l),
(326,728,l),
(92,639,l),
(105,194,l),
(72,25,l)
);
},
{
closed = 1;
nodes = (
(407,296,l),
(536,386,l),
(520,474,l),
(107,375,l),
(61,354,l),
(39,297,l)
);
},
{
closed = 1;
nodes = (
(463,538,l),
(597,645,l),
(581,734,l),
(168,634,l),
(107,539,l)
);
},
{
closed = 1;
nodes = (
(30,634,l),
(38,525,l),
(88,491,l),
(136,497,l),
(339,698,l)
);
},
{
closed = 1;
nodes = (
(375,111,l),
(505,92,l),
(573,147,l),
(566,248,l),
(411,224,l)
);
}
);
width = 613;
}
);
metricLeft = B;
unicode = 69;
},
{
glyphname = Schwa;
kernLeft = O;
kernRight = O;
lastChange = "2024-05-07 16:49:46 +0000";
layers = (
{
layerId = m01;
shapes = (
{
closed = 1;
nodes = (
(358,717,l),
(272,685,l),
(356,538,l),
(392,502,l),
(438,257,l),
(420,163,l),
(310,59,l),
(525,35,l),
(586,538,l),
(543,619,l)
);
},
{
closed = 1;
nodes = (
(476,-20,l),
(525,35,l),
(403,60,l),
(173,101,l),
(103,193,l),
(34,163,l),
(48,129,l),
(132,-10,l)
);
},
{
closed = 1;
nodes = (
(88,649,l),
(53,419,l),
(139,375,l),
(287,564,l),
(191,653,l)
);
},
{
closed = 1;
nodes = (
(88,649,l),
(489,460,l),
(539,498,l),
(481,626,l),
(229,725,l),
(185,702,l)
);
},
{
closed = 1;
nodes = (
(53,419,l),
(56,348,l),
(81,298,l),
(449,312,l),
(482,338,l),
(449,375,l)
);
},
{
closed = 1;
nodes = (
(20,129,l),
(101,92,l),
(194,85,l),
(230,188,l),
(219,260,l),
(60,236,l)
);
}
);
width = 616;
}
);
metricLeft = O;
metricRight = D;
unicode = 399;
},
{
glyphname = F;
kernLeft = A;
lastChange = "2024-05-09 20:43:36 +0000";
layers = (
{
layerId = m01;
shapes = (
{
closed = 1;
nodes = (
(117,28,l),
(259,48,l),
(247,507,l),
(434,683,l),
(294,722,l),
(86,654,l),
(98,204,l),
(66,40,l)
);
},
{
closed = 1;
nodes = (
(307,0,l),
(305,75,l),
(228,148,l),
(84,88,l),
(102,0,l)
);
},
{
closed = 1;
nodes = (
(66,244,l),
(226,244,l),
(300,244,l),
(368,244,l),
(503,346,l),
(487,434,l),
(101,334,l),
(54,277,l)
);
},
{
closed = 1;
nodes = (
(426,530,l),
(564,629,l),
(548,718,l),
(101,619,l),
(102,520,l)
);
},
{
closed = 1;
nodes = (
(245,562,l),
(245,639,l),
(134,669,l),
(48,642,l),
(30,551,l),
(106,540,l)
);
}
);
width = 564;
}
);
metricLeft = B;
unicode = 70;
},
{
glyphname = G;
kernLeft = O;
lastChange = "2024-05-07 16:49:44 +0000";
layers = (
{
anchors = (
{
name = bottom;
pos = (270,0);
},
{
name = top;
pos = (326,731);
}
);
layerId = m01;
shapes = (
{
closed = 1;
nodes = (
(121,31,l),
(158,84,l),
(206,145,l),
(196,504,l),
(300,663,l),
(256,711,l),
(23,622,l),
(20,165,l),
(20,84,l)
);
},
{
closed = 1;
nodes = (
(443,18,l),
(455,124,l),
(20,84,l),
(105,-20,l)
);
},
{
closed = 1;
nodes = (
(530,7,l),
(567,162,l),
(465,290,l),
(407,278,l),
(394,104,l),
(355,43,l),
(421,-22,l)
);
},
{
closed = 1;
nodes = (
(554,227,l),
(554,353,l),
(311,334,l),
(326,266,l),
(371,223,l)
);
},
{
closed = 1;
nodes = (
(554,583,l),
(467,635,l),
(367,510,l),
(369,443,l),
(492,394,l)
);
},
{
closed = 1;
nodes = (
(465,586,l),
(554,583,l),
(500,710,l),
(223,678,l),
(150,518,l)
);
}
);
width = 603;
}
);
metricLeft = O;
unicode = 71;
},
{
glyphname = H;
kernLeft = A;
kernRight = M;
lastChange = "2024-05-09 18:41:41 +0000";
layers = (
{
anchors = (
{
name = top;
pos = (342,694);
}
);
layerId = m01;
shapes = (
{
closed = 1;
nodes = (
(100,0,l),
(261,0,l),
(249,504,l),
(285,693,l),
(92,652,l),
(107,152,l),
(73,27,l)
);
},
{
closed = 1;
nodes = (
(226,244,l),
(245,390,l),
(150,384,l),
(52,352,l),
(57,199,l)
);
},
{
closed = 1;
nodes = (
(496,313,l),
(506,416,l),
(155,366,l),
(173,224,l)
);
},
{
closed = 1;
nodes = (
(226,544,l),
(285,693,l),
(129,713,l),
(30,681,l),
(35,528,l)
);
},
{
closed = 1;
nodes = (
(591,1,l),
(578,525,l),
(578,695,l),
(414,624,l),
(418,91,l),
(406,41,l),
(454,0,l)
);
},
{
closed = 1;
nodes = (
(394,652,l),
(434,556,l),
(558,548,l),
(614,597,l),
(610,696,l),
(414,692,l)
);
}
);
width = 614;
}
);
metricLeft = B;
unicode = 72;
},
{
glyphname = Hbar;
kernLeft = A;
kernRight = M;
lastChange = "2024-05-07 16:49:39 +0000";
layers = (
{
layerId = m01;
shapes = (
{
closed = 1;
nodes = (
(486,271,l),
(496,374,l),
(146,324,l),
(163,182,l)
);
},
{
closed = 1;
nodes = (
(582,9,l),
(568,495,l),
(568,665,l),
(529,680,l),
(407,655,l),
(408,63,l),
(396,13,l),
(445,-28,l)
);
},
{
closed = 1;
nodes = (
(602,454,l),
(611,556,l),
(146,508,l),
(163,366,l)
);
},
{
closed = 1;
nodes = (
(205,372,l),
(223,518,l),
(129,511,l),
(30,479,l),
(35,326,l)
);
},
{
closed = 1;
nodes = (
(248,658,l),
(82,622,l),
(95,136,l),
(63,-28,l),
(90,-55,l),
(251,0,l),
(239,474,l),
(270,636,l)
);
}
);
width = 611;
}
);
metricLeft = H;
metricRight = H;
unicode = 294;
},
{
glyphname = I;
kernLeft = A;
lastChange = "2024-05-09 20:36:23 +0000";
layers = (
{
anchors = (
{
name = bottom;
pos = (170,0);
},
{
name = ogonek;
pos = (312,8);
},
{
name = top;
pos = (195,726);
},
{
name = topleft;
pos = (7,680);
}
);
layerId = m01;
shapes = (
{
closed = 1;
nodes = (
(34,607,l),
(61,567,l),
(113,561,l),
(163,615,l),
(254,668,l),
(222,710,l),
(94,704,l),
(30,680,l)
);
},
{
closed = 1;
nodes = (
(87,0,l),
(250,14,l),
(251,488,l),
(303,672,l),
(282,703,l),
(78,646,l),
(77,164,l),
(46,28,l)
);
},
{
closed = 1;
nodes = (
(240,140,l),
(111,174,l),
(80,132,l),
(170,79,l),
(87,0,l),
(269,0,l),
(274,17,l),
(278,90,l)
);
}
);
width = 332;
}
);
unicode = 73;
},
{
glyphname = J;
kernLeft = J;
kernRight = M;
lastChange = "2024-05-09 18:37:45 +0000";
layers = (
{
anchors = (
{
name = bottom;
pos = (286,0);
},
{
name = top;
pos = (458,700);
}
);
layerId = m01;
shapes = (
{
closed = 1;
nodes = (
(491,43,l),
(508,512,l),
(547,558,l),
(552,663,l),
(527,714,l),
(311,621,l),
(286,510,l),
(331,476,l),
(328,422,l),
(319,44,l),
(360,0,l)
);
},
{
closed = 1;
nodes = (
(168,46,l),
(202,177,l),
(165,313,l),
(122,332,l),
(20,192,l),
(148,0,l)
);
},
{
closed = 1;
nodes = (
(491,43,l),
(400,242,l),
(138,58,l),
(148,0,l)
);
}
);
width = 573;
}
);
unicode = 74;
},
{
glyphname = K;
kernLeft = A;
lastChange = "2024-05-09 18:34:38 +0000";
layers = (
{
anchors = (
{
name = bottom;
pos = (374,-2);
},
{
name = top;
pos = (360,695);
}
);
layerId = m01;
shapes = (
{
closed = 1;
nodes = (
(118,0,l),
(273,0,l),
(261,449,l),
(276,680,l),
(98,622,l),
(112,175,l),
(82,37,l)
);
},
{
closed = 1;
nodes = (
(551,21,l),
(475,96,l),
(511,177,l),
(428,297,l),
(343,302,l),
(214,266,l),
(251,212,l),
(346,191,l),
(433,0,l)
);
},
{
closed = 1;
nodes = (
(366,258,l),
(374,339,l),
(398,439,l),
(62,338,l),
(30,233,l),
(57,194,l)
);
},
{
closed = 1;
nodes = (
(625,563,l),
(631,671,l),
(519,702,l),
(455,671,l),
(233,310,l),
(334,266,l)
);
},
{
closed = 1;
nodes = (
(61,574,l),
(153,520,l),
(261,449,l),
(276,680,l),
(215,714,l),
(35,689,l)
);
},
{
closed = 1;
nodes = (
(433,0,l),
(565,0,l),
(601,-1,l),
(604,114,l),
(520,148,l),
(439,86,l)
);
}
);
width = 644;
}
);
metricLeft = B;
unicode = 75;
},
{
glyphname = L;
kernLeft = A;
kernRight = L;
lastChange = "2024-05-09 18:38:47 +0000";
layers = (
{
anchors = (
{
name = bottom;
pos = (262,0);
},
{
name = center;
pos = (262,340);
},
{
name = top;
pos = (149,699);
},
{
name = topright;
pos = (487,680);
}
);
layerId = m01;
shapes = (
{
closed = 1;
nodes = (
(74,0,l),
(334,0,l),
(503,135,l),
(468,200,l),
(251,153,l),
(188,133,l),
(225,181,l),
(226,518,l),
(286,662,l),
(256,718,l),
(69,622,l),
(82,201,l),
(48,28,l)
);
},
{
closed = 1;
nodes = (
(30,684,l),
(32,609,l),
(124,559,l),
(268,641,l),
(250,730,l)
);
},
{
closed = 1;
nodes = (
(454,287,l),
(366,244,l),
(319,135,l),
(403,124,l),
(503,135,l),
(484,272,l)
);
}
);
width = 503;
}
);
metricLeft = B;
unicode = 76;
},
{
glyphname = Lslash;
kernLeft = A;
kernRight = L;
lastChange = "2024-05-07 16:49:39 +0000";
layers = (
{
layerId = m01;
shapes = (
{
pos = (16,0);
ref = L;
},
{
closed = 1;
nodes = (
(30,308,l),
(58,269,l),
(274,291,l),
(317,378,l),
(309,408,l),
(34,393,l)
);
}
);
width = 519;
}
);
metricLeft = L;
metricRight = L;
unicode = 321;
},
{
glyphname = M;
kernLeft = A;
kernRight = A;
lastChange = "2024-05-09 18:09:32 +0000";
layers = (
{
layerId = m01;
shapes = (
{
closed = 1;
nodes = (
(505,44,l),
(595,546,l),
(818,648,l),
(656,717,l),
(499,661,l),
(377,0,l)
);
},
{
closed = 1;
nodes = (
(217,0,l),
(242,65,l),
(242,178,l),
(77,143,l),
(45,90,l),
(63,0,l)
);
},
{
closed = 1;
nodes = (
(250,42,l),
(242,553,l),
(281,539,l),
(309,668,l),
(264,720,l),
(65,630,l),
(78,178,l),
(69,81,l),
(106,33,l)
);
},
{
closed = 1;
nodes = (
(787,0,l),
(778,493,l),
(818,648,l),
(631,616,l),
(610,129,l),
(581,74,l),
(610,0,l)
);
},
{
closed = 1;
nodes = (
(33,534,l),
(100,474,l),
(118,421,l),
(187,653,l),
(264,720,l),
(30,660,l)
);
},
{
closed = 1;
nodes = (
(328,702,l),
(257,653,l),
(377,0,l),
(463,186,l),
(349,681,l)
);
}
);
width = 818;
}
);
metricLeft = B;
metricRight = H;
unicode = 77;
},
{
glyphname = N;
kernLeft = A;
kernRight = N;
lastChange = "2024-05-09 18:17:26 +0000";
layers = (
{
anchors = (
{
name = bottom;
pos = (357,0);
},
{
name = top;
pos = (418,712);
}
);
layerId = m01;
shapes = (
{
closed = 1;
nodes = (
(530,136,l),
(252,717,l),
(218,558,l),
(289,384,l),
(507,-28,l)
);
},
{
closed = 1;
nodes = (
(102,0,l),
(272,0,l),
(272,464,l),
(215,672,l),
(86,622,l),
(102,178,l),
(74,31,l)
);
},
{
closed = 1;
nodes = (
(32,671,l),
(34,596,l),
(126,546,l),
(270,628,l),
(252,717,l)
);
},
{
closed = 1;
nodes = (
(665,714,l),
(507,653,l),
(519,194,l),
(507,-28,l),
(664,3,l),
(662,515,l),
(702,664,l)
);
}
);
width = 702;
}
);
metricRight = H;
unicode = 78;
},
{
glyphname = O;
kernLeft = O;
kernRight = O;
lastChange = "2024-05-09 20:41:37 +0000";
layers = (
{
anchors = (
{
name = bottom;
pos = (255,0);
},
{
name = center;
pos = (255,311);
},
{
name = ogonek;
pos = (512,9);
},
{
name = top;
pos = (295,735);
},
{
name = topleft;
pos = (-48,622);
},
{
name = topright;
pos = (558,622);
}
);
layerId = m01;
shapes = (
{
closed = 1;
nodes = (
(136,520,l),
(291,680,l),
(253,711,l),
(20,622,l),
(32,185,l),
(36,114,l),
(220,49,l)
);
},
{
closed = 1;
nodes = (
(182,-18,l),
(508,0,l),
(401,127,l),
(48,138,l),
(125,0,l)
);
},
{
closed = 1;
nodes = (
(558,569,l),
(458,577,l),
(380,97,l),
(508,0,l)
);
},
{
closed = 1;
nodes = (
(532,544,l),
(558,569,l),
(484,699,l),
(220,678,l),
(81,490,l)
);
}
);
width = 579;
}
);
metricLeft = C;
unicode = 79;
},
{
glyphname = Oslash;
kernLeft = O;
kernRight = O;
lastChange = "2024-05-07 16:49:39 +0000";
layers = (
{
layerId = m01;
shapes = (
{
closed = 1;
nodes = (
(136,520,l),
(291,680,l),
(253,711,l),
(20,622,l),
(32,136,l),
(36,65,l),
(220,0,l)
);
},
{
closed = 1;
nodes = (
(537,-19,l),
(384,82,l),
(48,90,l),
(113,-65,l)
);
},
{
closed = 1;
nodes = (
(558,569,l),
(458,577,l),
(380,48,l),
(537,-19,l)
);
},
{
closed = 1;
nodes = (
(532,544,l),
(558,569,l),
(468,686,l),
(220,678,l),
(81,490,l)
);
},
{
closed = 1;
nodes = (
(184,-107,l),
(500,606,l),
(529,654,l),
(485,706,l),
(434,715,l),
(397,634,l),
(58,-91,l),
(93,-146,l)
);
}
);
width = 579;
}
);
metricLeft = O;
metricRight = O;
unicode = 216;
},
{
glyphname = OE;
kernLeft = O;
lastChange = "2024-05-07 16:49:39 +0000";
layers = (
{
anchors = (
{
name = bottom;
pos = (255,0);
},
{
name = center;
pos = (255,311);
},
{
name = ogonek;
pos = (512,9);
},
{
name = top;
pos = (420,742);
},
{
name = topleft;
pos = (-48,622);
},
{
name = topright;
pos = (558,622);
}
);
layerId = m01;
shapes = (
{
closed = 1;
nodes = (
(136,520,l),
(291,680,l),
(253,711,l),
(20,622,l),
(32,136,l),
(36,65,l),
(220,0,l)
);
},
{
closed = 1;
nodes = (
(537,-19,l),
(384,82,l),
(48,90,l),
(113,-65,l)
);
},
{
closed = 1;
nodes = (
(558,569,l),
(458,577,l),
(380,48,l),
(537,-19,l)
);
},
{
closed = 1;
nodes = (
(532,544,l),
(558,569,l),
(499,670,l),
(220,678,l),
(81,490,l)
);
},
{
closed = 1;
nodes = (
(421,-24,l),
(726,-24,l),
(865,130,l),
(841,177,l),
(580,110,l),
(580,519,l),
(696,714,l),
(641,752,l),
(408,663,l),
(420,177,l),
(388,8,l)
);
},
{
closed = 1;
nodes = (
(683,274,l),
(828,386,l),
(812,475,l),
(423,375,l),
(459,364,l),
(421,283,l)
);
},
{
closed = 1;
nodes = (
(756,548,l),
(889,670,l),
(873,758,l),
(484,658,l),
(423,548,l)
);
},
{
closed = 1;
nodes = (
(345,658,l),
(353,549,l),
(404,515,l),
(452,521,l),
(654,722,l)
);
}
);
width = 905;
}
);
metricLeft = O;
metricRight = E;
unicode = 338;
},
{
glyphname = P;
kernLeft = A;
kernRight = P;
lastChange = "2024-05-07 16:49:39 +0000";
layers = (
{
layerId = m01;
shapes = (
{
closed = 1;
nodes = (
(78,0,l),
(264,35,l),
(253,520,l),
(390,647,l),
(322,711,l),
(88,622,l),
(101,181,l),
(67,24,l)
);
},
{
closed = 1;
nodes = (
(551,258,l),
(468,394,l),
(177,249,l),
(197,202,l)
);
},
{
closed = 1;
nodes = (
(620,583,l),
(480,597,l),
(421,341,l),
(551,258,l)
);
},
{
closed = 1;
nodes = (
(578,578,l),
(620,583,l),
(567,710,l),
(279,651,l),
(226,498,l)
);
},
{
closed = 1;
nodes = (
(322,0,l),
(321,75,l),
(229,147,l),
(85,66,l),
(118,-17,l)
);
},
{
closed = 1;
nodes = (
(89,468,l),
(266,504,l),
(264,579,l),
(88,622,l),
(30,597,l),
(40,489,l)
);
}
);
width = 632;
}
);
metricLeft = B;
unicode = 80;
},
{
glyphname = Thorn;
kernLeft = A;
lastChange = "2024-05-07 16:49:39 +0000";
layers = (
{
layerId = m01;
shapes = (
{
closed = 1;
nodes = (
(34,607,l),
(61,567,l),
(113,561,l),
(163,615,l),
(254,668,l),
(282,703,l),
(94,704,l),
(30,680,l)
);
},
{
closed = 1;
nodes = (
(87,-47,l),
(246,-16,l),
(241,476,l),
(297,671,l),
(282,703,l),
(78,646,l),
(77,117,l),
(46,-19,l)
);
},
{
closed = 1;
nodes = (
(240,121,l),
(111,127,l),
(80,85,l),
(170,32,l),
(221,-22,l),
(273,-16,l),
(299,24,l),
(303,97,l)
);
},
{
closed = 1;
nodes = (
(353,144,l),
(478,144,l),
(414,268,l),
(171,259,l),
(191,213,l)
);
},
{
closed = 1;
nodes = (
(566,457,l),
(426,470,l),
(389,308,l),
(329,227,l),
(478,144,l)
);
},
{
closed = 1;
nodes = (
(525,451,l),
(566,457,l),
(505,558,l),
(257,549,l),
(212,422,l)
);
}
);
width = 595;
}
);
metricLeft = I;
metricRight = A;
unicode = 222;
},
{
glyphname = Q;
kernLeft = O;
kernRight = O;
lastChange = "2024-05-10 13:26:00 +0000";
layers = (
{
layerId = m01;
shapes = (
{
closed = 1;
nodes = (
(170,532,l),
(357,662,l),
(253,711,l),
(20,622,l),
(32,168,l),
(37,97,l),
(192,55,l)
);
},
{
closed = 1;
nodes = (
(486,0,l),
(572,57,l),
(591,569,l),
(441,542,l),
(477,502,l),
(435,428,l),
(415,114,l),
(69,122,l),
(119,0,l)
);
},
{
closed = 1;
nodes = (
(532,-33,l),
(400,128,l),
(372,236,l),
(249,266,l),
(213,226,l),
(397,-61,l),
(496,-86,l)
);
},
{
closed = 1;
nodes = (
(564,544,l),
(591,569,l),
(518,699,l),
(146,662,l),
(240,520,l)
);
}
);
width = 612;
}
);
metricLeft = O;
metricRight = O;
unicode = 81;
},
{
glyphname = R;
kernLeft = A;
lastChange = "2024-05-09 20:40:30 +0000";
layers = (
{
anchors = (
{
name = bottom;
pos = (330,0);
},
{
name = top;
pos = (363,700);
}
);
layerId = m01;
shapes = (
{
closed = 1;
nodes = (
(132,0,l),
(279,0,l),
(267,470,l),
(334,711,l),
(101,622,l),
(114,136,l),
(95,67,l)
);
},
{
closed = 1;
nodes = (
(572,-62,l),
(562,62,l),
(487,184,l),
(362,197,l),
(415,245,l),
(276,194,l),
(460,-93,l)
);
},
{
closed = 1;
nodes = (
(556,242,l),
(568,322,l),
(315,285,l),
(196,144,l)
);
},
{
closed = 1;
nodes = (
(646,592,l),
(578,652,l),
(488,618,l),
(442,296,l),
(556,242,l)
);
},
{
closed = 1;
nodes = (
(609,607,l),
(646,592,l),
(593,719,l),
(301,678,l),
(243,518,l)
);
},
{
closed = 1;
nodes = (
(56,514,l),
(148,460,l),
(241,444,l),
(356,684,l),
(334,711,l),
(30,629,l)
);
},
{
closed = 1;
nodes = (
(460,-93,l),
(579,-82,l),
(619,-52,l),
(617,26,l),
(604,42,l),
(510,42,l)
);
}
);
width = 646;
}
);
metricLeft = B;
unicode = 82;
},
{
glyphname = S;
lastChange = "2024-05-07 16:49:31 +0000";
layers = (
{
anchors = (
{
name = bottom;
pos = (267,0);
},
{
name = top;
pos = (270,714);
}
);
layerId = m01;
shapes = (
{
closed = 1;
nodes = (
(199,669,l),
(327,694,l),
(60,627,l),
(43,333,l),
(155,304,l),
(218,333,l)
);
},
{
closed = 1;
nodes = (
(476,22,l),
(253,81,l),
(225,157,l),
(175,172,l),
(39,117,l),
(38,3,l),
(232,-13,l)
);
},
{
closed = 1;
nodes = (
(476,22,l),
(506,366,l),
(367,335,l),
(313,56,l)
);
},
{
closed = 1;
nodes = (
(506,366,l),
(424,430,l),
(45,354,l),
(42,290,l),
(386,255,l)
);
},
{
closed = 1;
nodes = (
(486,493,l),
(522,611,l),
(506,700,l),
(327,694,l),
(127,674,l),
(112,624,l),
(176,563,l),
(341,590,l),
(382,456,l)
);
}
);
width = 544;
}
);
unicode = 83;
},
{
glyphname = Germandbls;
kernLeft = A;
lastChange = "2024-05-09 20:39:30 +0000";
layers = (
{
layerId = m01;
shapes = (
{
closed = 1;
nodes = (
(297,0,l),
(293,64,l),
(262,113,l),
(270,464,l),
(172,580,l),
(140,671,l),
(95,609,l),
(99,105,l),
(75,46,l),
(99,0,l)
);
},
{
closed = 1;
nodes = (
(262,395,l),
(254,463,l),
(186,506,l),
(60,471,l),
(30,441,l),
(86,342,l)
);
},
{
closed = 1;
nodes = (
(579,3,l),
(627,115,l),
(658,287,l),
(540,385,l),
(432,436,l),
(353,376,l),
(364,280,l),
(408,285,l),
(538,301,l),
(550,265,l),
(461,130,l),
(384,179,l),
(318,198,l),
(298,123,l),
(399,-41,l)
);
},
{
closed = 1;
nodes = (
(515,434,l),
(575,478,l),
(586,626,l),
(442,714,l),
(273,690,l),
(298,585,l),
(418,570,l),
(443,567,l),
(479,554,l),
(409,493,l),
(382,446,l),
(353,376,l)
);
},
{
closed = 1;
nodes = (
(442,714,l),
(198,726,l),
(113,699,l),
(95,609,l),
(171,549,l),
(418,570,l)
);
}
);
width = 666;
}
);
metricLeft = E;
metricRight = B;
unicode = 7838;
},
{
glyphname = T;
kernLeft = T;
kernRight = T;
lastChange = "2024-05-09 18:21:59 +0000";
layers = (
{
anchors = (
{
name = bottom;
pos = (322,22);
},
{
name = center;
pos = (283,340);
},
{
name = top;
pos = (283,697);
}
);
layerId = m01;
shapes = (
{
closed = 1;
nodes = (
(404,0,l),
(416,56,l),
(416,107,l),
(383,134,l),
(378,502,l),
(342,546,l),
(374,602,l),
(205,573,l),
(207,508,l),
(218,142,l),
(191,0,l),
(249,0,l)
);
},
{
closed = 1;
nodes = (
(283,544,l),
(541,562,l),
(590,630,l),
(546,719,l),
(41,649,l),
(5,550,l),
(50,520,l)
);
},
{
closed = 1;
nodes = (
(546,635,l),
(546,719,l),
(93,691,l),
(69,621,l)
);
},
{
closed = 1;
nodes = (
(177,0,l),
(249,0,l),
(271,16,l),
(271,149,l),
(173,69,l)
);
}
);
width = 590;
}
);
unicode = 84;
},
{
glyphname = U;
kernRight = N;
lastChange = "2024-05-09 18:20:51 +0000";
layers = (
{
anchors = (
{
name = bottom;
pos = (349,0);
},
{
name = ogonek;
pos = (599,8);
},
{
name = top;
pos = (367,730);
},
{
name = topright;
pos = (645,680);
}
);
layerId = m01;
shapes = (
{
closed = 1;
nodes = (
(598,98,l),
(607,510,l),
(634,655,l),
(596,697,l),
(442,646,l),
(450,137,l),
(450,70,l),
(272,138,l),
(273,167,l),
(267,551,l),
(285,642,l),
(252,706,l),
(80,622,l),
(87,219,l),
(87,68,l),
(155,52,l),
(155,0,l),
(530,0,l)
);
},
{
closed = 1;
nodes = (
(108,494,l),
(214,554,l),
(252,706,l),
(116,683,l),
(39,650,l),
(30,571,l)
);
}
);
width = 634;
}
);
metricLeft = B;
metricRight = H;
unicode = 85;
},
{
glyphname = V;
kernLeft = V;
kernRight = V;
lastChange = "2024-05-07 16:49:31 +0000";
layers = (
{
layerId = m01;
shapes = (
{
closed = 1;
nodes = (
(675,622,l),
(610,706,l),
(559,706,l),
(411,622,l),
(411,520,l),
(478,439,l),
(363,201,l),
(237,274,l),
(361,-47,l)
);
},
{
closed = 1;
nodes = (
(351,87,l),
(184,546,l),
(198,631,l),
(171,665,l),
(11,574,l),
(162,78,l),
(361,-47,l)
);
},
{
closed = 1;
nodes = (
(231,561,l),
(266,634,l),
(171,711,l),
(11,574,l),
(69,514,l)
);
}
);
width = 678;
}
);
unicode = 86;
},
{
glyphname = W;
kernLeft = V;
kernRight = V;
lastChange = "2024-05-07 16:49:39 +0000";
layers = (
{
anchors = (
{
name = bottom;
pos = (460,0);
},
{
name = top;
pos = (460,714);
}
);
layerId = m01;
shapes = (
{
closed = 1;
nodes = (
(910,599,l),
(841,702,l),
(713,700,l),
(679,632,l),
(716,561,l),
(745,573,l),
(716,488,l),
(610,127,l),
(542,108,l),
(708,-9,l)
);
},
{
closed = 1;
nodes = (
(538,362,l),
(474,447,l),
(454,480,l),
(406,480,l),
(452,304,l),
(331,139,l),
(239,-6,l),
(396,-6,l)
);
},
{
closed = 1;
nodes = (
(708,-9,l),
(625,97,l),
(615,277,l),
(484,568,l),
(390,552,l),
(359,470,l),
(515,108,l),
(572,-9,l)
);
},
{
closed = 1;
nodes = (
(351,87,l),
(184,546,l),
(198,631,l),
(171,665,l),
(11,574,l),
(162,78,l),
(239,-6,l)
);
},
{
closed = 1;
nodes = (
(231,561,l),
(266,634,l),
(171,711,l),
(11,574,l),
(69,514,l)
);
}
);
width = 913;
}
);
metricLeft = V;
metricRight = V;
unicode = 87;
},
{
glyphname = X;
lastChange = "2024-05-07 16:49:39 +0000";
layers = (
{
layerId = m01;
shapes = (
{
closed = 1;
nodes = (
(539,-8,l),
(529,114,l),
(474,182,l),
(258,574,l),
(215,686,l),
(145,723,l),
(43,637,l),
(31,576,l),
(384,0,l),
(449,-35,l)
);
},
{
closed = 1;
nodes = (
(257,21,l),
(225,159,l),
(257,310,l),
(123,289,l),
(75,165,l),
(30,50,l),
(47,16,l),
(95,-12,l)
);
},
{
closed = 1;
nodes = (
(258,574,l),
(215,685,l),
(145,723,l),
(71,683,l),
(83,630,l),
(155,540,l)
);
},
{
closed = 1;
nodes = (
(468,397,l),
(516,521,l),
(545,665,l),
(528,698,l),
(480,726,l),
(335,634,l),
(322,373,l)
);
}
);
width = 574;
}
);
metricLeft = I;
metricRight = I;
unicode = 88;
},
{
glyphname = Y;
kernLeft = V;
kernRight = Y;
lastChange = "2024-05-09 18:40:29 +0000";
layers = (
{
anchors = (
{
name = bottom;
pos = (282,0);
},
{
name = top;
pos = (311,714);
},
{
name = topleft;
pos = (11,680);
}
);
layerId = m01;
shapes = (
{
closed = 1;
nodes = (
(361,238,l),
(561,627,l),
(540,700,l),
(423,700,l),
(381,674,l),
(235,253,l)
);
},
{
closed = 1;
nodes = (
(381,32,l),
(346,160,l),
(392,398,l),
(177,296,l),
(220,177,l),
(184,30,l),
(220,0,l),
(365,0,l)
);
},
{
closed = 1;
nodes = (
(269,263,l),
(187,561,l),
(96,582,l),
(115,653,l),
(11,558,l),
(130,262,l)
);
},
{
closed = 1;
nodes = (
(214,582,l),
(247,628,l),
(247,700,l),
(31,700,l),
(11,558,l)
);
}
);
width = 569;
}
);
metricLeft = W;
unicode = 89;
},
{
glyphname = Z;
lastChange = "2024-05-07 16:49:31 +0000";
layers = (
{
anchors = (
{
name = bottom;
pos = (311,0);
},
{
name = center;
pos = (311,340);
},
{
name = top;
pos = (304,714);
}
);
layerId = m01;
shapes = (
{
closed = 1;
nodes = (
(189,133,l),
(306,181,l),
(592,539,l),
(545,689,l),
(392,571,l),
(414,541,l),
(30,139,l),
(50,52,l),
(192,31,l)
);
},
{
closed = 1;
nodes = (
(509,-4,l),
(540,65,l),
(125,126,l),
(50,76,l),
(30,-27,l)
);
},
{
closed = 1;
nodes = (
(573,25,l),
(592,219,l),
(541,227,l),
(445,245,l),
(380,156,l),
(406,11,l)
);
},
{
closed = 1;
nodes = (
(208,526,l),
(226,586,l),
(257,647,l),
(461,652,l),
(573,695,l),
(156,709,l),
(130,645,l),
(257,647,l),
(273,680,l),
(42,650,l),
(32,534,l),
(44,472,l)
);
},
{
closed = 1;
nodes = (
(587,656,l),
(573,695,l),
(273,680,l),
(156,610,l),
(592,539,l)
);
}
);
width = 620;
}
);
unicode = 90;
},
{
glyphname = A.ss01;
kernLeft = altA1_l;
kernRight = altA1_r;
lastChange = "2024-05-07 16:49:31 +0000";
layers = (
{
anchors = (
{
name = bottom;
pos = (604,-26);
},
{
name = ogonek;
pos = (681,10);
},
{
name = top;
pos = (383,737);
}
);
layerId = m01;
shapes = (
{
closed = 1;
nodes = (
(196,0,l),
(213,28,l),
(206,115,l),
(338,430,l),
(347,597,l),
(239,605,l),
(8,-14,l)
);
},
{
closed = 1;
nodes = (
(756,45,l),
(707,117,l),
(482,681,l),
(342,715,l),
(289,681,l),
(535,99,l),
(519,21,l),
(544,-10,l),
(732,-8,l)
);
},
{
closed = 1;
nodes = (
(0,64,l),
(8,-14,l),
(152,39,l),
(152,126,l),
(98,163,l)
);
},
{
closed = 1;
nodes = (
(433,211,l),
(503,296,l),
(488,354,l),
(38,222,l),
(19,135,l),
(53,124,l)
);
}
);
width = 756;
}
);
},
{
glyphname = A.ss02;
kernLeft = altA2_l;
kernRight = altA2_r;
lastChange = "2024-05-07 16:49:39 +0000";
layers = (
{
anchors = (
{
name = bottom;
pos = (540,-7);
},
{
name = ogonek;
pos = (584,10);
},
{
name = top;
pos = (504,750);
}
);
layerId = m01;
shapes = (
{
closed = 1;
nodes = (
(661,696,l),
(574,553,l),
(504,546,l),
(486,196,l),
(496,47,l),
(540,-7,l),
(660,57,l),
(666,550,l),
(697,662,l)
);
},
{
closed = 1;
nodes = (
(686,12,l),
(686,94,l),
(657,132,l),
(504,108,l),
(478,75,l),
(466,8,l),
(540,-7,l)
);
},
{
closed = 1;
nodes = (
(206,0,l),
(223,28,l),
(216,115,l),
(383,507,l),
(485,570,l),
(293,579,l),
(250,468,l),
(197,449,l),
(24,-2,l)
);
},
{
closed = 1;
nodes = (
(16,76,l),
(24,-2,l),
(162,39,l),
(162,126,l),
(108,163,l)
);
},
{
closed = 1;
nodes = (
(221,631,l),
(250,442,l),
(369,546,l),
(613,542,l),
(661,696,l),
(449,678,l),
(396,700,l)
);
},
{
closed = 1;
nodes = (
(677,265,l),
(717,339,l),
(702,397,l),
(205,250,l),
(305,174,l)
);
}
);
width = 746;
}
);
metricRight = A;
},
{
glyphname = A.ss03;
kernLeft = altA3_l;
kernRight = altA3_r;
lastChange = "2024-05-07 16:49:39 +0000";
layers = (
{
anchors = (
{
name = bottom;
pos = (613,-20);
},
{
name = ogonek;
pos = (685,10);
},
{
name = top;
pos = (346,758);
}
);
layerId = m01;
shapes = (
{
closed = 1;
nodes = (
(402,208,l),
(488,304,l),
(473,362,l),
(79,240,l),
(60,153,l),
(94,142,l)
);
},
{
closed = 1;
nodes = (
(100,664,l),
(118,590,l),
(257,532,l),
(428,551,l),
(413,700,l),
(125,694,l)
);
},
{
closed = 1;
nodes = (
(786,45,l),
(737,117,l),
(512,681,l),
(413,700,l),
(319,681,l),
(384,526,l),
(428,422,l),
(565,99,l),
(549,21,l),
(574,-10,l),
(762,-8,l)
);
},
{
closed = 1;
nodes = (
(226,0,l),
(243,28,l),
(236,115,l),
(310,429,l),
(310,561,l),
(211,604,l),
(38,-14,l)
);
},
{
closed = 1;
nodes = (
(30,64,l),
(38,-14,l),
(182,39,l),
(182,126,l),
(128,163,l)
);
}
);
width = 761;
}
);
metricLeft = A;
},
{
glyphname = T_T;
kernLeft = T;
lastChange = "2024-05-07 16:49:31 +0000";
layers = (
{
anchors = (
{
name = bottom;
pos = (922,22);
},
{
name = center;
pos = (883,340);
},
{
name = top;
pos = (883,697);
}
);
layerId = m01;
shapes = (
{
closed = 1;
nodes = (
(367,-2,l),
(394,56,l),
(394,107,l),
(361,134,l),
(365,502,l),
(320,546,l),
(352,602,l),
(183,573,l),
(185,508,l),
(196,142,l),
(169,0,l),
(221,-17,l)
);
},
{
closed = 1;
nodes = (
(283,544,l),
(458,556,l),
(494,647,l),
(458,719,l),
(41,649,l),
(5,550,l),
(50,520,l)
);
},
{
closed = 1;
nodes = (
(458,635,l),
(458,719,l),
(93,691,l),
(69,621,l)
);
},
{
closed = 1;
nodes = (
(140,-3,l),
(221,-17,l),
(249,-17,l),
(271,114,l),
(165,94,l)
);
},
{
closed = 1;
nodes = (
(828,-2,l),
(855,56,l),
(855,107,l),
(822,134,l),
(817,502,l),
(781,546,l),
(813,602,l),
(644,573,l),
(646,508,l),
(657,142,l),
(630,0,l),
(682,-17,l)
);
},
{
closed = 1;
nodes = (
(601,-3,l),
(682,-17,l),
(710,-17,l),
(732,114,l),
(626,94,l)
);
},
{
closed = 1;
nodes = (
(761,544,l),
(931,562,l),
(980,630,l),
(936,719,l),
(519,649,l),
(483,550,l),
(528,520,l)
);
},
{
closed = 1;
nodes = (
(936,635,l),
(936,719,l),
(547,691,l),
(547,621,l)
);
}
);
width = 980;
}
);
metricLeft = T;
metricRight = T;
},
{
glyphname = a;
kernLeft = a;
kernRight = ar;
lastChange = "2024-05-09 18:06:58 +0000";
layers = (
{
anchors = (
{
name = bottom;
pos = (246,0);
},
{
name = ogonek;
pos = (462,8);
},
{
name = top;
pos = (261,546);
}
);
layerId = m01;
shapes = (
{
closed = 1;
nodes = (
(247,10,l),
(333,148,l),
(346,169,l),
(261,145,l),
(191,126,l),
(140,182,l),
(152,218,l),
(282,202,l),
(326,198,l),
(346,269,l),
(266,329,l),
(158,278,l),
(33,205,l),
(25,112,l),
(85,0,l)
);
},
{
closed = 1;
nodes = (
(178,330,l),
(203,390,l),
(189,417,l),
(211,444,l),
(260,489,l),
(211,531,l),
(60,516,l),
(18,475,l),
(61,319,l),
(108,292,l)
);
},
{
closed = 1;
nodes = (
(513,0,l),
(514,108,l),
(457,144,l),
(465,475,l),
(321,486,l),
(369,402,l),
(314,286,l),
(313,266,l),
(316,105,l),
(292,46,l),
(316,0,l)
);
},
{
closed = 1;
nodes = (
(449,454,l),
(432,513,l),
(352,528,l),
(115,504,l),
(92,430,l),
(225,405,l),
(368,385,l)
);
}
);
width = 531;
}
);
unicode = 97;
},
{
glyphname = ae;
kernLeft = a;
lastChange = "2024-05-07 16:49:31 +0000";
layers = (
{
anchors = (
{
name = top;
pos = (421,549);
}
);
layerId = m01;
shapes = (
{
closed = 1;
nodes = (
(247,10,l),
(339,60,l),
(346,169,l),
(261,145,l),
(191,126,l),
(140,182,l),
(152,218,l),
(282,202,l),
(326,198,l),
(346,269,l),
(266,329,l),
(158,278,l),
(33,205,l),
(25,112,l),
(67,-33,l)
);
},
{
closed = 1;
nodes = (
(178,330,l),
(230,356,l),
(216,383,l),
(211,444,l),
(211,531,l),
(60,516,l),
(18,475,l),
(61,319,l),
(108,292,l)
);
},
{
closed = 1;
nodes = (
(513,22,l),
(515,110,l),
(458,146,l),
(465,475,l),
(321,486,l),
(314,417,l),
(316,105,l),
(292,46,l),
(316,0,l)
);
},
{
closed = 1;
nodes = (
(449,454,l),
(432,513,l),
(352,528,l),
(115,504,l),
(92,430,l),
(225,405,l),
(368,385,l)
);
},
{
closed = 1;
nodes = (
(719,264,l),
(778,301,l),
(793,425,l),
(725,530,l),
(570,527,l),
(494,506,l),
(442,401,l),
(479,330,l),
(642,425,l),
(668,338,l),
(660,317,l),
(528,303,l),
(484,308,l),
(465,237,l),
(582,192,l)
);
},
{
closed = 1;
nodes = (
(695,54,l),
(718,127,l),
(602,103,l),
(459,123,l),
(350,110,l),
(324,108,l),
(475,-20,l)
);
},
{
closed = 1;
nodes = (
(514,70,l),
(461,118,l),
(494,401,l),
(518,460,l),
(494,506,l),
(331,422,l),
(315,316,l),
(325,86,l),
(507,0,l)
);
},
{
closed = 1;
nodes = (
(766,29,l),
(810,33,l),
(766,189,l),
(695,226,l),
(627,178,l),
(637,132,l),
(560,91,l),
(560,28,l),
(578,-6,l)
);
},
{
closed = 1;
nodes = (
(582,454,l),
(570,527,l),
(380,489,l),
(367,407,l)
);
}
);
width = 827;
}
);
metricLeft = a;
metricRight = e;
unicode = 230;
},
{
glyphname = b;
kernLeft = h;
kernRight = o;
lastChange = "2024-05-09 20:44:01 +0000";
layers = (
{
layerId = m01;
shapes = (
{
closed = 1;
nodes = (
(491,21,l),
(545,243,l),
(527,407,l),
(475,506,l),
(293,531,l),
(214,471,l),
(240,357,l),
(289,390,l),
(397,426,l),
(365,170,l),
(298,123,l),
(185,226,l),
(209,183,l),
(225,156,l),
(331,-2,l)
);
},
{
closed = 1;
nodes = (
(245,0,l),
(269,59,l),
(245,118,l),
(245,614,l),
(126,668,l),
(77,634,l),
(83,117,l),
(25,81,l),
(34,0,l)
);
},
{
closed = 1;
nodes = (
(195,577,l),
(216,655,l),
(130,682,l),
(15,655,l),
(40,560,l),
(129,547,l)
);
}
);
width = 581;
}
);
metricLeft = h;
unicode = 98;
},
{
glyphname = c;
kernLeft = c;
lastChange = "2024-05-09 18:28:13 +0000";
layers = (
{
anchors = (
{
name = bottom;
pos = (277,59);
},
{
name = top;
pos = (217,520);
}
);
layerId = m01;
shapes = (
{
closed = 1;
nodes = (
(175,28,l),
(243,93,l),
(140,424,l),
(175,426,l),
(203,458,l),
(157,469,l),
(107,452,l),
(22,254,l),
(71,46,l)
);
},
{
closed = 1;
nodes = (
(377,40,l),
(385,98,l),
(359,154,l),
(93,110,l),
(121,0,l)
);
},
{
closed = 1;
nodes = (
(436,69,l),
(434,202,l),
(375,213,l),
(234,124,l),
(205,45,l),
(332,0,l)
);
},
{
closed = 1;
nodes = (
(401,408,l),
(370,520,l),
(115,521,l),
(40,400,l),
(167,379,l)
);
},
{
closed = 1;
nodes = (
(434,308,l),
(440,462,l),
(419,496,l),
(314,471,l),
(241,414,l),
(346,419,l),
(277,360,l),
(320,296,l)
);
}
);
width = 466;
}
);
unicode = 99;
},
{
glyphname = d;
kernLeft = c;
kernRight = d;
lastChange = "2024-05-09 18:12:31 +0000";
layers = (
{
anchors = (
{
name = bottom;
pos = (279,0);
},
{
name = center;
pos = (473,358);
},
{
name = top;
pos = (382,670);
},
{
name = topright;
pos = (538,800);
}
);
layerId = m01;
shapes = (
{
closed = 1;
nodes = (
(245,16,l),
(343,175,l),
(402,287,l),
(266,136,l),
(231,130,l),
(153,392,l),
(165,428,l),
(299,401,l),
(343,396,l),
(362,467,l),
(283,527,l),
(80,476,l),
(50,403,l),
(22,118,l),
(94,-9,l)
);
},
{
closed = 1;
nodes = (
(536,0,l),
(539,88,l),
(484,145,l),
(491,634,l),
(363,629,l),
(318,566,l),
(321,96,l),
(297,37,l),
(321,0,l)
);
},
{
closed = 1;
nodes = (
(512,562,l),
(537,657,l),
(422,684,l),
(336,657,l),
(318,566,l),
(422,549,l)
);
}
);
width = 558;
}
);
metricLeft = c;
unicode = 100;
},
{
glyphname = dcroat;
kernLeft = c;
kernRight = d;
lastChange = "2024-05-09 20:45:34 +0000";
layers = (
{
layerId = m01;
shapes = (
{
closed = 1;
nodes = (
(245,5,l),
(344,40,l),
(402,276,l),
(266,125,l),
(231,119,l),
(199,378,l),
(211,414,l),
(299,401,l),
(343,396,l),
(362,467,l),
(283,527,l),
(80,476,l),
(50,403,l),
(22,107,l),
(94,-20,l)
);
},
{
closed = 1;
nodes = (
(539,10,l),
(542,98,l),
(484,134,l),
(491,723,l),
(363,718,l),
(318,656,l),
(321,85,l),
(297,26,l),
(321,-20,l)
);
},
{
closed = 1;
nodes = (
(263,586,l),
(291,547,l),
(505,547,l),
(547,634,l),
(539,664,l),
(267,671,l)
);
}
);
width = 566;
}
);
metricLeft = d;
metricRight = d;
unicode = 273;
},
{
glyphname = eth;
kernLeft = c;
kernRight = d;
lastChange = "2024-05-09 20:45:34 +0000";
layers = (
{
layerId = m01;
shapes = (
{
closed = 1;
nodes = (
(298,-5,l),
(372,40,l),
(402,276,l),
(266,125,l),
(214,68,l),
(155,312,l),
(206,346,l),
(318,267,l),
(354,303,l),
(354,324,l),
(287,405,l),
(146,463,l),
(50,403,l),
(22,107,l),
(94,-20,l)
);
},
{
closed = 1;
nodes = (
(484,134,l),
(490,449,l),
(437,574,l),
(326,685,l),
(253,704,l),
(178,647,l),
(192,612,l),
(319,463,l),
(321,85,l),
(297,26,l),
(385,-5,l)
);
},
{
closed = 1;
nodes = (
(183,506,l),
(231,444,l),
(490,586,l),
(470,680,l),
(417,705,l),
(201,565,l)
);
}
);
width = 509;
}
);
metricLeft = d;
metricRight = d;
unicode = 240;
},
{
glyphname = e;
kernLeft = c;
lastChange = "2024-05-09 18:10:58 +0000";
layers = (
{
anchors = (
{
name = bottom;
pos = (254,0);
},
{
name = ogonek;
pos = (471,8);
},
{
name = top;
pos = (274,542);
}
);
layerId = m01;
shapes = (
{
closed = 1;
nodes = (
(426,264,l),
(485,301,l),
(500,425,l),
(432,530,l),
(278,527,l),
(202,506,l),
(149,401,l),
(186,330,l),
(350,425,l),
(375,338,l),
(367,317,l),
(245,301,l),
(191,308,l),
(179,278,l),
(289,192,l)
);
},
{
closed = 1;
nodes = (
(384,59,l),
(426,127,l),
(310,103,l),
(166,103,l),
(202,401,l),
(226,460,l),
(202,506,l),
(38,422,l),
(22,316,l),
(32,86,l),
(113,0,l)
);
},
{
closed = 1;
nodes = (
(474,29,l),
(517,33,l),
(474,189,l),
(402,226,l),
(334,178,l),
(344,132,l),
(267,91,l),
(267,28,l),
(286,0,l)
);
},
{
closed = 1;
nodes = (
(289,454,l),
(278,527,l),
(87,489,l),
(74,407,l)
);
}
);
width = 534;
}
);
metricLeft = c;
unicode = 101;
},
{
glyphname = schwa;
kernLeft = c;
lastChange = "2024-05-07 16:49:31 +0000";
layers = (
{
anchors = (
{
name = bottom;
pos = (251,-22);
},
{
name = ogonek;
pos = (54,512);
},
{
name = top;
pos = (271,520);
}
);
layerId = m01;
shapes = (
{
closed = 1;
nodes = (
(99,256,l),
(41,219,l),
(26,95,l),
(94,-10,l),
(248,-7,l),
(324,14,l),
(377,119,l),
(339,190,l),
(176,95,l),
(150,182,l),
(158,203,l),
(290,217,l),
(334,212,l),
(354,283,l),
(237,328,l)
);
},
{
closed = 1;
nodes = (
(123,466,l),
(100,393,l),
(216,417,l),
(360,417,l),
(324,119,l),
(300,60,l),
(324,14,l),
(487,98,l),
(503,204,l),
(494,434,l),
(343,540,l)
);
},
{
closed = 1;
nodes = (
(85,474,l),
(30,417,l),
(52,331,l),
(123,294,l),
(191,342,l),
(182,388,l),
(258,429,l),
(258,492,l),
(240,520,l)
);
},
{
closed = 1;
nodes = (
(237,66,l),
(248,-7,l),
(420,17,l),
(451,113,l)
);
}
);
width = 533;
}
);
unicode = 601;
},
{
glyphname = f;
lastChange = "2024-05-09 18:29:00 +0000";
layers = (
{
layerId = m01;
shapes = (
{
closed = 1;
nodes = (
(287,0,l),
(290,98,l),
(232,134,l),
(237,520,l),
(138,616,l),
(106,658,l),
(62,596,l),
(68,131,l),
(44,72,l),
(69,0,l)
);
},
{
closed = 1;
nodes = (
(276,387,l),
(344,430,l),
(328,519,l),
(8,466,l),
(8,355,l),
(38,325,l)
);
},
{
closed = 1;
nodes = (
(330,674,l),
(165,714,l),
(79,686,l),
(62,596,l),
(137,585,l),
(305,578,l)
);
}
);
width = 344;
}
);
unicode = 102;
},
{
glyphname = g;
kernLeft = c;
lastChange = "2024-05-10 13:48:01 +0000";
layers = (
{
anchors = (
{
name = bottom;
pos = (269,-240);
},
{
name = top;
pos = (298,552);
}
);
layerId = m01;
shapes = (
{
closed = 1;
nodes = (
(435,-236,l),
(503,-14,l),
(456,71,l),
(105,71,l),
(81,-49,l),
(436,-38,l),
(350,-130,l),
(134,-194,l),
(34,-153,l),
(142,-238,l)
);
},
{
closed = 1;
nodes = (
(216,-90,l),
(129,-34,l),
(105,-3,l),
(34,-153,l),
(176,-216,l)
);
},
{
closed = 1;
nodes = (
(179,-37,l),
(174,157,l),
(96,146,l),
(50,4,l),
(81,-49,l)
);
},
{
closed = 1;
nodes = (
(227,53,l),
(174,113,l),
(165,43,l)
);
},
{
closed = 1;
nodes = (
(157,132,l),
(174,157,l),
(167,358,l),
(233,425,l),
(131,469,l),
(82,452,l),
(20,417,l),
(27,316,l),
(44,148,l),
(69,122,l)
);
},
{
closed = 1;
nodes = (
(380,113,l),
(405,208,l),
(374,242,l),
(71,132,l),
(129,106,l)
);
},
{
closed = 1;
nodes = (
(142,397,l),
(377,419,l),
(377,520,l),
(165,520,l),
(73,504,l),
(20,417,l),
(47,382,l)
);
},
{
closed = 1;
nodes = (
(458,379,l),
(424,485,l),
(377,520,l),
(293,509,l),
(276,236,l),
(371,236,l),
(380,113,l)
);
},
{
closed = 1;
nodes = (
(503,365,l),
(539,433,l),
(540,520,l),
(432,520,l),
(389,465,l),
(437,354,l)
);
}
);
width = 548;
}
);
unicode = 103;
},
{
glyphname = h;
kernLeft = h;
kernRight = n;
lastChange = "2024-05-09 18:35:12 +0000";
layers = (
{
anchors = (
{
name = bottom;
pos = (265,0);
},
{
name = center;
pos = (128,571);
},
{
name = top;
pos = (131,699);
}
);
layerId = m01;
shapes = (
{
closed = 1;
nodes = (
(280,0,l),
(283,88,l),
(225,124,l),
(227,520,l),
(229,606,l),
(96,658,l),
(52,596,l),
(59,105,l),
(35,45,l),
(59,0,l)
);
},
{
closed = 1;
nodes = (
(432,0,l),
(500,0,l),
(516,65,l),
(487,142,l),
(500,508,l),
(376,528,l),
(295,521,l),
(223,413,l),
(222,379,l),
(296,424,l),
(320,414,l),
(332,116,l),
(321,0,l)
);
},
{
closed = 1;
nodes = (
(229,606,l),
(229,683,l),
(118,713,l),
(32,686,l),
(15,595,l),
(90,584,l)
);
}
);
width = 540;
}
);
metricRight = n;
unicode = 104;
},
{
glyphname = hbar;
kernLeft = h;
kernRight = n;
lastChange = "2024-05-07 16:49:39 +0000";
layers = (
{
anchors = (
{
name = bottom;
pos = (268,0);
},
{
name = center;
pos = (131,571);
},
{
name = top;
pos = (134,699);
}
);
layerId = m01;
shapes = (
{
closed = 1;
nodes = (
(280,19,l),
(283,107,l),
(225,143,l),
(230,520,l),
(232,714,l),
(110,723,l),
(54,716,l),
(62,94,l),
(38,34,l),
(62,-11,l)
);
},
{
closed = 1;
nodes = (
(436,0,l),
(495,43,l),
(520,65,l),
(490,142,l),
(504,508,l),
(380,528,l),
(298,521,l),
(226,413,l),
(225,379,l),
(300,424,l),
(323,414,l),
(336,116,l),
(323,-10,l)
);
},
{
closed = 1;
nodes = (
(15,519,l),
(320,544,l),
(348,591,l),
(333,654,l),
(40,646,l),
(16,594,l)
);
}
);
width = 544;
}
);
metricLeft = h;
metricRight = h;
unicode = 295;
},
{
glyphname = i;
kernRight = ar;
lastChange = "2024-05-09 18:12:52 +0000";
layers = (
{
anchors = (
{
name = bottom;
pos = (550,0);
},
{
name = right;
pos = (846,330);
},
{
name = top;
pos = (550,520);
}
);
layerId = m01;
shapes = (
{
closed = 1;
nodes = (
(282,1,l),
(280,73,l),
(236,134,l),
(238,326,l),
(245,522,l),
(29,480,l),
(20,402,l),
(45,367,l),
(82,356,l),
(84,139,l),
(52,104,l),
(52,38,l),
(76,0,l)
);
},
{
closed = 1;
nodes = (
(211,554,l),
(292,622,l),
(262,687,l),
(208,739,l),
(98,698,l),
(50,625,l),
(99,550,l)
);
}
);
width = 312;
}
);
unicode = 105;
},
{
glyphname = idotless;
kernLeft = a;
kernRight = ar;
lastChange = "2024-05-07 16:49:39 +0000";
layers = (
{
anchors = (
{
name = bottom;
pos = (145,0);
},
{
name = ogonek;
pos = (285,0);
},
{
name = top;
pos = (157,520);
}
);
layerId = m01;
shapes = (
{
closed = 1;
nodes = (
(285,21,l),
(283,93,l),
(239,154,l),
(238,326,l),
(245,522,l),
(29,480,l),
(20,402,l),
(45,367,l),
(82,356,l),
(84,139,l),
(52,104,l),
(52,38,l),
(109,-12,l)
);
}
);
width = 305;
}
);
metricLeft = i;
metricRight = i;
unicode = 305;
},
{
glyphname = iacute;
kernRight = ar;
lastChange = "2024-05-07 16:49:31 +0000";
layers = (
{
anchors = (
{
name = bottom;
pos = (156,6);
},
{
name = right;
pos = (265,330);
},
{
name = top;
pos = (129,520);
}
);
layerId = m01;
shapes = (
{
closed = 1;
nodes = (
(274,7,l),
(273,79,l),
(229,140,l),
(230,326,l),
(237,522,l),
(21,480,l),
(12,402,l),
(37,367,l),
(74,356,l),
(74,126,l),
(42,90,l),
(42,25,l),
(98,-26,l)
);
},
{
pos = (19,82);
ref = acute;
}
);
width = 303;
}
);
unicode = 237;
},
{
glyphname = icircumflex;
lastChange = "2024-05-07 16:49:31 +0000";
layers = (
{
layerId = m01;
shapes = (
{
closed = 1;
nodes = (
(274,7,l),
(273,79,l),
(229,140,l),
(230,326,l),
(237,522,l),
(21,480,l),
(12,402,l),
(37,367,l),
(74,356,l),
(74,126,l),
(42,90,l),
(42,25,l),
(98,-26,l)
);
},
{
pos = (-43,103);
ref = circumflex;
}
);
width = 323;
}
);
unicode = 238;
},
{
glyphname = idieresis;
kernRight = ar;
lastChange = "2024-05-07 16:49:31 +0000";
layers = (
{
layerId = m01;
shapes = (
{
closed = 1;
nodes = (
(306,7,l),
(304,79,l),
(260,140,l),
(261,326,l),
(268,522,l),
(52,480,l),
(43,402,l),
(68,367,l),
(106,356,l),
(105,126,l),
(73,90,l),
(73,25,l),
(130,-26,l)
);
},
{
pos = (0,78);
ref = dieresis;
}
);
width = 371;
}
);
unicode = 239;
},
{
glyphname = igrave;
kernRight = ar;
lastChange = "2024-05-07 16:49:31 +0000";
layers = (
{
layerId = m01;
shapes = (
{
closed = 1;
nodes = (
(274,7,l),
(273,79,l),
(229,140,l),
(230,326,l),
(237,522,l),
(21,480,l),
(12,402,l),
(37,367,l),
(74,356,l),
(74,126,l),
(42,90,l),
(42,25,l),
(98,-26,l)
);
},
{
pos = (0,80);
ref = grave;
}
);
width = 274;
}
);
unicode = 236;
},
{
glyphname = imacron;
lastChange = "2024-05-07 16:49:39 +0000";
layers = (
{
layerId = m01;
shapes = (
{
closed = 1;
nodes = (
(314,21,l),
(312,93,l),
(268,154,l),
(266,326,l),
(274,522,l),
(58,480,l),
(49,402,l),
(74,367,l),
(111,356,l),
(113,139,l),
(81,104,l),
(81,38,l),
(138,-12,l)
);
},
{
pos = (77,39);
ref = macron;
}
);
width = 380;
}
);
metricLeft = i;
metricRight = i;
unicode = 299;
},
{
glyphname = iogonek;
lastChange = "2024-05-07 16:49:39 +0000";
layers = (
{
layerId = m01;
shapes = (
{
closed = 1;
nodes = (
(285,21,l),
(283,93,l),
(239,154,l),
(238,326,l),
(245,522,l),
(29,480,l),
(20,402,l),
(45,367,l),
(82,356,l),
(84,139,l),
(52,104,l),
(52,38,l),
(109,-12,l)
);
},
{
closed = 1;
nodes = (
(211,554,l),
(292,622,l),
(262,687,l),
(208,739,l),
(98,698,l),
(50,625,l),
(99,550,l)
);
},
{
pos = (3,11);
ref = ogonek;
}
);
width = 312;
}
);
metricLeft = i;
metricRight = i;
unicode = 303;
},
{
glyphname = ij;
lastChange = "2024-05-07 16:49:39 +0000";
layers = (
{
anchors = (
{
name = bottom;
pos = (550,0);
},
{
name = right;
pos = (846,330);
},
{
name = top;
pos = (550,520);
}
);
layerId = m01;
shapes = (
{
closed = 1;
nodes = (
(285,21,l),
(283,93,l),
(239,154,l),
(238,326,l),
(245,522,l),
(29,480,l),
(20,402,l),
(45,367,l),
(82,356,l),
(84,139,l),
(52,104,l),
(52,38,l),
(109,-12,l)
);
},
{
closed = 1;
nodes = (
(211,554,l),
(333,691,l),
(302,756,l),
(249,808,l),
(98,698,l),
(50,625,l),
(99,550,l)
);
},
{
closed = 1;
nodes = (
(575,-14,l),
(566,429,l),
(590,488,l),
(566,534,l),
(347,503,l),
(345,415,l),
(402,379,l),
(402,177,l),
(442,24,l),
(514,-26,l)
);
},
{
closed = 1;
nodes = (
(574,-99,l),
(575,-14,l),
(517,2,l),
(400,-14,l),
(283,-70,l),
(305,-149,l),
(510,-148,l)
);
},
{
closed = 1;
nodes = (
(513,554,l),
(603,684,l),
(573,749,l),
(519,801,l),
(400,698,l),
(352,625,l),
(401,550,l)
);
}
);
width = 623;
}
);
metricLeft = i;
metricRight = j;
unicode = 307;
},
{
glyphname = j;
kernLeft = j;
lastChange = "2024-05-09 16:52:41 +0000";
layers = (
{
layerId = m01;
shapes = (
{
closed = 1;
nodes = (
(275,-14,l),
(266,429,l),
(290,488,l),
(266,534,l),
(47,503,l),
(45,415,l),
(102,379,l),
(102,177,l),
(142,24,l),
(214,-26,l)
);
},
{
closed = 1;
nodes = (
(274,-99,l),
(275,-14,l),
(217,2,l),
(100,-14,l),
(0,-62,l),
(22,-141,l),
(210,-148,l)
);
},
{
closed = 1;
nodes = (
(213,554,l),
(294,622,l),
(263,687,l),
(210,739,l),
(100,698,l),
(52,625,l),
(101,550,l)
);
}
);
width = 314;
}
);
metricRight = i;
unicode = 106;
},
{
glyphname = jdotless;
kernLeft = j;
lastChange = "2024-05-09 20:45:34 +0000";
layers = (
{
anchors = (
{
name = bottom;
pos = (153,-250);
},
{
name = top;
pos = (190,565);
}
);
layerId = m01;
shapes = (
{
closed = 1;
nodes = (
(275,-14,l),
(266,429,l),
(290,488,l),
(266,534,l),
(47,503,l),
(45,415,l),
(102,379,l),
(102,177,l),
(142,24,l),
(214,-26,l)
);
},
{
closed = 1;
nodes = (
(274,-99,l),
(275,-14,l),
(217,2,l),
(100,-14,l),
(0,-62,l),
(22,-141,l),
(210,-148,l)
);
}
);
width = 310;
}
);
metricLeft = j;
metricRight = j;
unicode = 567;
},
{
glyphname = jacute;
kernLeft = j;
lastChange = "2024-05-09 20:45:34 +0000";
layers = (
{
layerId = m01;
shapes = (
{
closed = 1;
nodes = (
(179,573,l),
(282,666,l),
(244,740,l),
(149,714,l),
(92,622,l),
(99,566,l)
);
},
{
closed = 1;
nodes = (
(275,-14,l),
(266,429,l),
(290,488,l),
(266,534,l),
(47,503,l),
(45,415,l),
(102,379,l),
(102,177,l),
(142,24,l),
(214,-26,l)
);
},
{
closed = 1;
nodes = (
(274,-99,l),
(275,-14,l),
(217,2,l),
(100,-14,l),
(0,-62,l),
(22,-141,l),
(210,-148,l)
);
}
);
width = 310;
}
);
metricLeft = j;
metricRight = j;
},
{
glyphname = k;
kernLeft = h;
lastChange = "2024-05-09 20:31:20 +0000";
layers = (
{
layerId = m01;
shapes = (
{
closed = 1;
nodes = (
(277,1,l),
(280,89,l),
(222,125,l),
(227,388,l),
(228,450,l),
(231,552,l),
(98,605,l),
(53,542,l),
(58,105,l),
(34,46,l),
(58,0,l)
);
},
{
closed = 1;
nodes = (
(468,53,l),
(490,140,l),
(389,247,l),
(365,261,l),
(323,308,l),
(208,290,l),
(193,231,l),
(284,194,l),
(349,0,l),
(421,0,l)
);
},
{
closed = 1;
nodes = (
(492,0,l),
(534,37,l),
(515,112,l),
(400,80,l),
(377,118,l),
(371,37,l),
(421,0,l)
);
},
{
closed = 1;
nodes = (
(231,552,l),
(231,630,l),
(120,659,l),
(34,632,l),
(16,542,l),
(92,530,l)
);
},
{
closed = 1;
nodes = (
(492,379,l),
(496,431,l),
(412,469,l),
(366,491,l),
(324,453,l),
(284,395,l),
(208,290,l),
(400,295,l)
);
},
{
closed = 1;
nodes = (
(496,431,l),
(487,504,l),
(432,533,l),
(343,532,l),
(292,481,l),
(343,429,l),
(392,365,l)
);
}
);
width = 566;
}
);
unicode = 107;
},
{
glyphname = l;
kernLeft = h;
lastChange = "2024-05-09 18:12:03 +0000";
layers = (
{
anchors = (
{
name = bottom;
pos = (141,0);
},
{
name = center;
pos = (141,260);
},
{
name = top;
pos = (140,714);
},
{
name = topright;
pos = (276,714);
}
);
layerId = m01;
shapes = (
{
closed = 1;
nodes = (
(269,0,l),
(276,95,l),
(219,131,l),
(227,520,l),
(229,606,l),
(96,658,l),
(52,596,l),
(56,82,l),
(32,22,l),
(56,0,l)
);
},
{
closed = 1;
nodes = (
(229,606,l),
(229,683,l),
(118,713,l),
(32,686,l),
(15,595,l),
(90,584,l)
);
}
);
width = 293;
}
);
metricLeft = h;
metricRight = a;
unicode = 108;
},
{
glyphname = lslash;
kernLeft = h;
lastChange = "2024-05-09 20:45:34 +0000";
layers = (
{
layerId = m01;
shapes = (
{
pos = (3,0);
ref = l;
},
{
closed = 1;
nodes = (
(15,329,l),
(43,290,l),
(257,309,l),
(300,395,l),
(292,426,l),
(19,414,l)
);
}
);
width = 317;
}
);
metricLeft = l;
metricRight = l;
unicode = 322;
},
{
glyphname = m;
kernLeft = a;
kernRight = n;
lastChange = "2024-05-09 18:07:16 +0000";
layers = (
{
layerId = m01;
shapes = (
{
closed = 1;
nodes = (
(284,0,l),
(298,82,l),
(260,133,l),
(258,326,l),
(266,522,l),
(122,520,l),
(21,480,l),
(12,402,l),
(37,367,l),
(74,356,l),
(75,142,l),
(43,106,l),
(43,41,l),
(89,0,l)
);
},
{
closed = 1;
nodes = (
(505,16,l),
(543,73,l),
(514,150,l),
(526,508,l),
(402,528,l),
(320,521,l),
(248,413,l),
(247,379,l),
(322,424,l),
(345,414,l),
(359,124,l),
(346,-2,l)
);
},
{
closed = 1;
nodes = (
(760,0,l),
(801,71,l),
(771,149,l),
(783,508,l),
(659,528,l),
(578,521,l),
(506,413,l),
(505,379,l),
(579,424,l),
(602,414,l),
(617,122,l),
(615,0,l)
);
}
);
width = 825;
}
);
unicode = 109;
},
{
glyphname = n;
kernLeft = a;
kernRight = n;
lastChange = "2024-05-09 18:09:55 +0000";
layers = (
{
anchors = (
{
name = bottom;
pos = (320,0);
},
{
name = right;
pos = (838,330);
},
{
name = top;
pos = (303,534);
}
);
layerId = m01;
shapes = (
{
closed = 1;
nodes = (
(303,0,l),
(302,72,l),
(258,133,l),
(258,326,l),
(266,522,l),
(107,520,l),
(21,480,l),
(12,402,l),
(37,367,l),
(74,356,l),
(74,139,l),
(42,104,l),
(42,38,l),
(81,0,l)
);
},
{
closed = 1;
nodes = (
(512,0,l),
(542,64,l),
(512,142,l),
(526,508,l),
(402,528,l),
(320,521,l),
(248,413,l),
(247,379,l),
(322,424,l),
(345,414,l),
(358,116,l),
(356,0,l)
);
}
);
width = 566;
}
);
metricLeft = m;
metricRight = m;
unicode = 110;
},
{
glyphname = o;
kernLeft = c;
kernRight = o;
lastChange = "2024-05-09 18:14:32 +0000";
layers = (
{
anchors = (
{
name = bottom;
pos = (212,0);
},
{
name = center;
pos = (212,260);
},
{
name = ogonek;
pos = (406,8);
},
{
name = top;
pos = (246,549);
},
{
name = topright;
pos = (438,520);
}
);
layerId = m01;
shapes = (
{
closed = 1;
nodes = (
(454,334,l),
(430,495,l),
(380,520,l),
(296,509,l),
(322,210,l),
(254,104,l),
(290,70,l),
(389,1,l)
);
},
{
closed = 1;
nodes = (
(389,1,l),
(408,102,l),
(377,136,l),
(73,86,l),
(132,0,l)
);
},
{
closed = 1;
nodes = (
(160,26,l),
(228,86,l),
(168,270,l),
(181,418,l),
(134,469,l),
(85,452,l),
(22,354,l),
(30,210,l),
(50,14,l)
);
},
{
closed = 1;
nodes = (
(380,419,l),
(380,520,l),
(178,524,l),
(76,504,l),
(23,417,l),
(50,382,l),
(145,397,l)
);
}
);
width = 490;
}
);
metricLeft = c;
metricRight = b;
unicode = 111;
},
{
glyphname = oslash;
kernLeft = c;
kernRight = o;
lastChange = "2024-05-07 16:49:39 +0000";
layers = (
{
layerId = m01;
shapes = (
{
closed = 1;
nodes = (
(453,334,l),
(435,504,l),
(386,529,l),
(301,515,l),
(334,374,l),
(298,118,l),
(288,55,l),
(416,14,l)
);
},
{
closed = 1;
nodes = (
(239,0,l),
(416,14,l),
(406,88,l),
(380,145,l),
(76,94,l),
(121,-26,l)
);
},
{
closed = 1;
nodes = (
(158,12,l),
(227,77,l),
(120,85,l),
(180,458,l),
(134,469,l),
(84,452,l),
(22,354,l),
(27,196,l),
(47,0,l)
);
},
{
closed = 1;
nodes = (
(386,428,l),
(386,529,l),
(178,524,l),
(75,504,l),
(23,417,l),
(144,397,l)
);
},
{
closed = 1;
nodes = (
(37,-21,l),
(47,-54,l),
(97,-67,l),
(425,546,l),
(405,575,l),
(342,561,l)
);
}
);
width = 489;
}
);
metricLeft = o;
metricRight = o;
unicode = 248;
},
{
glyphname = oe;
kernLeft = c;
lastChange = "2024-05-07 16:49:39 +0000";
layers = (
{
anchors = (
{
name = bottom;
pos = (541,0);
},
{
name = center;
pos = (212,260);
},
{
name = ogonek;
pos = (758,8);
},
{
name = top;
pos = (561,542);
},
{
name = topright;
pos = (438,520);
}
);
layerId = m01;
shapes = (
{
closed = 1;
nodes = (
(454,334,l),
(436,504,l),
(386,529,l),
(302,515,l),
(298,318,l),
(288,94,l),
(289,55,l),
(442,17,l)
);
},
{
closed = 1;
nodes = (
(240,0,l),
(442,17,l),
(406,88,l),
(381,145,l),
(77,94,l),
(122,-26,l)
);
},
{
closed = 1;
nodes = (
(158,12,l),
(227,77,l),
(138,160,l),
(181,458,l),
(134,469,l),
(85,452,l),
(22,354,l),
(28,196,l),
(48,0,l)
);
},
{
closed = 1;
nodes = (
(386,428,l),
(386,529,l),
(178,524,l),
(76,504,l),
(23,417,l),
(145,397,l)
);
},
{
closed = 1;
nodes = (
(713,264,l),
(771,301,l),
(786,425,l),
(718,530,l),
(564,527,l),
(488,506,l),
(435,401,l),
(473,330,l),
(636,425,l),
(662,338,l),
(654,317,l),
(522,303,l),
(443,354,l),
(424,283,l),
(575,192,l)
);
},
{
closed = 1;
nodes = (
(689,54,l),
(712,127,l),
(596,103,l),
(453,123,l),
(344,110,l),
(318,108,l),
(478,-22,l)
);
},
{
closed = 1;
nodes = (
(508,70,l),
(449,115,l),
(482,398,l),
(512,460,l),
(488,506,l),
(325,422,l),
(309,316,l),
(318,86,l),
(501,0,l)
);
},
{
closed = 1;
nodes = (
(760,29,l),
(803,33,l),
(760,189,l),
(689,226,l),
(621,178,l),
(630,132,l),
(554,91,l),
(554,28,l),
(572,-6,l)
);
},
{
closed = 1;
nodes = (
(575,454,l),
(564,527,l),
(374,489,l),
(361,407,l)
);
}
);
width = 820;
}
);
metricLeft = o;
metricRight = e;
unicode = 339;
},
{
glyphname = p;
kernLeft = a;
kernRight = o;
lastChange = "2024-05-10 13:26:49 +0000";
layers = (
{
layerId = m01;
shapes = (
{
closed = 1;
nodes = (
(460,30,l),
(512,130,l),
(530,298,l),
(496,473,l),
(315,532,l),
(224,415,l),
(132,407,l),
(153,294,l),
(352,383,l),
(394,335,l),
(346,98,l),
(255,95,l),
(200,174,l),
(132,174,l),
(192,130,l),
(259,-3,l)
);
},
{
closed = 1;
nodes = (
(224,-140,l),
(192,-76,l),
(126,-46,l),
(36,-59,l),
(12,-154,l),
(125,-195,l)
);
},
{
closed = 1;
nodes = (
(224,-140,l),
(211,410,l),
(255,469,l),
(213,520,l),
(13,520,l),
(11,446,l),
(68,410,l),
(76,-161,l),
(125,-195,l)
);
}
);
width = 566;
}
);
metricRight = b;
unicode = 112;
},
{
glyphname = thorn;
kernLeft = l;
kernRight = o;
lastChange = "2024-05-07 16:49:39 +0000";
layers = (
{
layerId = m01;
shapes = (
{
closed = 1;
nodes = (
(464,30,l),
(516,130,l),
(534,298,l),
(500,473,l),
(319,532,l),
(204,490,l),
(136,407,l),
(157,294,l),
(363,383,l),
(405,335,l),
(357,98,l),
(259,95,l),
(204,174,l),
(136,174,l),
(196,130,l),
(266,-15,l)
);
},
{
closed = 1;
nodes = (
(228,-140,l),
(196,-76,l),
(130,-46,l),
(40,-59,l),
(16,-154,l),
(129,-195,l)
);
},
{
closed = 1;
nodes = (
(228,-140,l),
(215,590,l),
(259,648,l),
(235,694,l),
(17,714,l),
(15,626,l),
(72,590,l),
(80,-161,l),
(129,-195,l)
);
}
);
width = 570;
}
);
metricLeft = l;
metricRight = o;
unicode = 254;
},
{
glyphname = q;
kernLeft = c;
lastChange = "2024-05-07 16:49:39 +0000";
layers = (
{
layerId = m01;
shapes = (
{
closed = 1;
nodes = (
(339,115,l),
(322,174,l),
(274,90,l),
(138,115,l),
(182,337,l),
(279,383,l),
(382,294,l),
(404,407,l),
(335,490,l),
(238,511,l),
(57,452,l),
(22,278,l),
(40,109,l),
(92,10,l),
(257,-18,l)
);
},
{
closed = 1;
nodes = (
(538,-191,l),
(513,-96,l),
(423,-83,l),
(358,-113,l),
(337,-191,l),
(422,-218,l)
);
},
{
closed = 1;
nodes = (
(474,-198,l),
(467,410,l),
(525,446,l),
(522,534,l),
(305,514,l),
(281,469,l),
(305,410,l),
(305,-178,l),
(424,-232,l)
);
}
);
width = 538;
}
);
metricLeft = c;
unicode = 113;
},
{
glyphname = r;
kernLeft = a;
kernRight = r;
lastChange = "2024-05-09 18:04:14 +0000";
layers = (
{
anchors = (
{
name = bottom;
pos = (234,0);
},
{
name = top;
pos = (234,534);
}
);
layerId = m01;
shapes = (
{
closed = 1;
nodes = (
(279,0,l),
(282,88,l),
(224,124,l),
(228,340,l),
(230,426,l),
(98,478,l),
(53,416,l),
(60,101,l),
(36,42,l),
(50,0,l)
);
},
{
closed = 1;
nodes = (
(230,426,l),
(230,503,l),
(119,533,l),
(34,506,l),
(16,415,l),
(91,404,l)
);
},
{
closed = 1;
nodes = (
(464,430,l),
(467,510,l),
(343,530,l),
(262,522,l),
(190,414,l),
(189,381,l),
(263,426,l),
(286,415,l),
(288,370,l),
(409,315,l)
);
},
{
closed = 1;
nodes = (
(279,0,l),
(282,88,l),
(224,124,l),
(228,340,l),
(230,426,l),
(98,478,l),
(53,416,l),
(60,101,l),
(36,42,l),
(100,42,l)
);
},
{
closed = 1;
nodes = (
(290,293,l),
(377,255,l),
(395,286,l),
(409,315,l),
(288,370,l)
);
}
);
width = 477;
}
);
unicode = 114;
},
{
glyphname = s;
kernLeft = s;
kernRight = s;
lastChange = "2024-05-10 13:26:57 +0000";
layers = (
{
anchors = (
{
name = bottom;
pos = (260,35);
},
{
name = top;
pos = (230,538);
}
);
layerId = m01;
shapes = (
{
closed = 1;
nodes = (
(136,202,l),
(213,248,l),
(198,425,l),
(184,493,l),
(22,447,l),
(35,202,l)
);
},
{
closed = 1;
nodes = (
(433,58,l),
(298,58,l),
(163,174,l),
(36,102,l),
(35,17,l),
(123,4,l),
(251,-14,l)
);
},
{
closed = 1;
nodes = (
(453,277,l),
(371,342,l),
(198,260,l),
(40,260,l),
(337,225,l)
);
},
{
closed = 1;
nodes = (
(433,58,l),
(453,277,l),
(308,296,l),
(264,5,l)
);
},
{
closed = 1;
nodes = (
(432,398,l),
(479,447,l),
(462,520,l),
(285,530,l),
(75,488,l),
(125,377,l),
(298,426,l),
(329,361,l)
);
}
);
width = 479;
}
);
metricLeft = c;
unicode = 115;
},
{
glyphname = germandbls;
lastChange = "2024-05-07 16:49:31 +0000";
layers = (
{
layerId = m01;
shapes = (
{
closed = 1;
nodes = (
(289,-11,l),
(284,64,l),
(234,113,l),
(242,464,l),
(143,560,l),
(112,602,l),
(67,540,l),
(71,63,l),
(47,4,l),
(71,-42,l)
);
},
{
closed = 1;
nodes = (
(233,395,l),
(225,463,l),
(157,506,l),
(32,471,l),
(2,441,l),
(57,342,l)
);
},
{
closed = 1;
nodes = (
(551,3,l),
(599,115,l),
(584,239,l),
(458,312,l),
(350,363,l),
(271,303,l),
(290,232,l),
(334,237,l),
(464,253,l),
(476,217,l),
(432,130,l),
(356,179,l),
(290,198,l),
(270,123,l),
(371,-41,l)
);
},
{
closed = 1;
nodes = (
(433,361,l),
(493,406,l),
(478,530,l),
(335,618,l),
(165,594,l),
(189,538,l),
(310,522,l),
(335,520,l),
(371,507,l),
(327,420,l),
(300,374,l),
(271,303,l)
);
},
{
closed = 1;
nodes = (
(335,618,l),
(170,658,l),
(84,630,l),
(67,540,l),
(142,529,l),
(310,522,l)
);
}
);
width = 599;
}
);
unicode = 223;
},
{
glyphname = t;
lastChange = "2024-05-09 18:19:36 +0000";
layers = (
{
anchors = (
{
name = bottom;
pos = (210,66);
},
{
name = center;
pos = (186,260);
},
{
name = top;
pos = (186,665);
},
{
name = topright;
pos = (365,714);
}
);
layerId = m01;
shapes = (
{
closed = 1;
nodes = (
(147,98,l),
(253,214,l),
(258,578,l),
(217,634,l),
(114,665,l),
(70,628,l),
(61,102,l),
(106,39,l)
);
},
{
closed = 1;
nodes = (
(294,14,l),
(254,122,l),
(166,145,l),
(61,102,l),
(78,11,l),
(164,-16,l)
);
},
{
closed = 1;
nodes = (
(310,18,l),
(339,156,l),
(278,170,l),
(210,115,l),
(236,93,l),
(267,11,l)
);
},
{
closed = 1;
nodes = (
(342,444,l),
(374,492,l),
(306,535,l),
(38,471,l),
(8,441,l),
(47,382,l)
);
}
);
width = 384;
}
);
unicode = 116;
},
{
glyphname = u;
kernLeft = a;
kernRight = ar;
lastChange = "2024-05-10 13:27:46 +0000";
layers = (
{
anchors = (
{
name = bottom;
pos = (344,26);
},
{
name = ogonek;
pos = (487,8);
},
{
name = top;
pos = (284,543);
},
{
name = topright;
pos = (524,520);
}
);
layerId = m01;
shapes = (
{
closed = 1;
nodes = (
(539,0,l),
(548,77,l),
(523,112,l),
(485,124,l),
(486,377,l),
(518,412,l),
(518,478,l),
(470,520,l),
(262,520,l),
(258,423,l),
(315,362,l),
(314,154,l),
(307,0,l)
);
},
{
closed = 1;
nodes = (
(240,1,l),
(319,112,l),
(319,145,l),
(238,98,l),
(215,108,l),
(202,386,l),
(207,521,l),
(71,520,l),
(40,477,l),
(18,438,l),
(48,360,l),
(34,14,l),
(158,-6,l)
);
}
);
width = 568;
}
);
metricLeft = a;
unicode = 117;
},
{
glyphname = v;
kernLeft = v;
kernRight = v;
lastChange = "2024-05-09 20:34:57 +0000";
layers = (
{
layerId = m01;
shapes = (
{
closed = 1;
nodes = (
(324,0,l),
(188,487,l),
(96,502,l),
(39,470,l),
(75,343,l),
(136,35,l),
(198,0,l)
);
},
{
closed = 1;
nodes = (
(260,395,l),
(249,467,l),
(243,520,l),
(96,520,l),
(75,343,l)
);
},
{
closed = 1;
nodes = (
(417,46,l),
(504,386,l),
(532,487,l),
(504,520,l),
(370,520,l),
(312,290,l),
(287,39,l),
(331,39,l)
);
}
);
width = 532;
}
);
unicode = 118;
},
{
glyphname = w;
kernLeft = v;
kernRight = v;
lastChange = "2024-05-09 20:45:34 +0000";
layers = (
{
anchors = (
{
name = bottom;
pos = (470,0);
},
{
name = top;
pos = (470,541);
}
);
layerId = m01;
shapes = (
{
closed = 1;
nodes = (
(387,0,l),
(397,31,l),
(360,47,l),
(217,487,l),
(125,502,l),
(39,434,l),
(104,343,l),
(165,26,l),
(205,1,l)
);
},
{
closed = 1;
nodes = (
(289,395,l),
(296,491,l),
(201,520,l),
(125,502,l),
(104,343,l)
);
},
{
closed = 1;
nodes = (
(446,36,l),
(533,386,l),
(561,487,l),
(486,512,l),
(393,498,l),
(369,331,l),
(331,61,l),
(333,8,l)
);
},
{
closed = 1;
nodes = (
(733,0,l),
(751,54,l),
(705,33,l),
(557,487,l),
(485,507,l),
(570,150,l),
(621,0,l)
);
},
{
closed = 1;
nodes = (
(786,36,l),
(873,386,l),
(901,487,l),
(826,512,l),
(733,498,l),
(681,290,l),
(671,61,l),
(673,8,l)
);
}
);
width = 901;
}
);
metricLeft = v;
metricRight = v;
unicode = 119;
},
{
glyphname = x;
kernLeft = a;
lastChange = "2024-05-09 20:45:34 +0000";
layers = (
{
layerId = m01;
shapes = (
{
closed = 1;
nodes = (
(436,6,l),
(458,81,l),
(382,196,l),
(238,379,l),
(210,498,l),
(140,536,l),
(38,450,l),
(26,389,l),
(307,22,l),
(372,-14,l)
);
},
{
closed = 1;
nodes = (
(164,45,l),
(180,88,l),
(211,234,l),
(78,212,l),
(18,138,l),
(26,39,l),
(43,6,l),
(91,-22,l)
);
},
{
closed = 1;
nodes = (
(253,386,l),
(210,498,l),
(140,536,l),
(66,496,l),
(78,442,l),
(218,282,l)
);
},
{
closed = 1;
nodes = (
(423,273,l),
(469,330,l),
(498,474,l),
(481,508,l),
(433,536,l),
(288,444,l),
(300,254,l)
);
}
);
width = 515;
}
);
metricLeft = a;
metricRight = a;
unicode = 120;
},
{
glyphname = y;
kernLeft = v;
kernRight = v;
lastChange = "2024-05-07 16:49:31 +0000";
layers = (
{
anchors = (
{
name = bottom;
pos = (272,0);
},
{
name = top;
pos = (302,520);
}
);
layerId = m01;
shapes = (
{
closed = 1;
nodes = (
(352,-17,l),
(188,487,l),
(46,512,l),
(10,434,l),
(75,343,l),
(136,26,l),
(252,-17,l)
);
},
{
closed = 1;
nodes = (
(254,-225,l),
(376,-102,l),
(417,36,l),
(320,93,l),
(258,50,l),
(254,-142,l),
(132,-76,l),
(55,-154,l),
(108,-243,l)
);
},
{
closed = 1;
nodes = (
(260,395,l),
(267,491,l),
(172,520,l),
(46,512,l),
(75,343,l)
);
},
{
closed = 1;
nodes = (
(417,36,l),
(504,386,l),
(532,487,l),
(457,512,l),
(364,498,l),
(312,290,l),
(302,61,l),
(304,8,l)
);
}
);
width = 532;
}
);
metricRight = v;
unicode = 121;
},
{
glyphname = z;
kernLeft = a;
lastChange = "2024-05-09 20:38:53 +0000";
layers = (
{
anchors = (
{
name = bottom;
pos = (238,0);
},
{
name = center;
pos = (238,260);
},
{
name = top;
pos = (272,533);
}
);
layerId = m01;
shapes = (
{
closed = 1;
nodes = (
(259,175,l),
(459,336,l),
(474,394,l),
(418,410,l),
(303,389,l),
(18,140,l),
(50,24,l),
(186,99,l)
);
},
{
closed = 1;
nodes = (
(418,-8,l),
(445,24,l),
(184,118,l),
(41,92,l),
(21,-11,l)
);
},
{
closed = 1;
nodes = (
(482,21,l),
(501,215,l),
(450,224,l),
(387,238,l),
(321,149,l),
(315,8,l)
);
},
{
closed = 1;
nodes = (
(199,375,l),
(217,434,l),
(252,520,l),
(33,498,l),
(22,383,l),
(34,321,l)
);
},
{
closed = 1;
nodes = (
(470,480,l),
(456,519,l),
(264,501,l),
(121,430,l),
(474,394,l)
);
},
{
closed = 1;
nodes = (
(385,473,l),
(456,519,l),
(146,530,l),
(121,466,l)
);
}
);
width = 518;
}
);
metricLeft = a;
metricRight = a;
unicode = 122;
},
{
glyphname = g.ss01;
kernLeft = c;
lastChange = "2024-05-10 13:47:07 +0000";
layers = (
{
anchors = (
{
name = bottom;
pos = (269,-240);
},
{
name = top;
pos = (298,552);
}
);
layerId = m01;
shapes = (
{
closed = 1;
nodes = (
(179,38,l),
(225,112,l),
(191,374,l),
(149,412,l),
(155,469,l),
(105,452,l),
(43,354,l),
(48,222,l),
(68,26,l)
);
},
{
closed = 1;
nodes = (
(381,-241,l),
(348,-84,l),
(177,-140,l),
(193,-63,l),
(142,-34,l),
(81,-36,l),
(20,-74,l),
(93,-155,l),
(204,-253,l)
);
},
{
closed = 1;
nodes = (
(352,38,l),
(413,18,l),
(403,91,l),
(377,148,l),
(97,121,l),
(132,-2,l)
);
},
{
closed = 1;
nodes = (
(484,-80,l),
(427,188,l),
(359,112,l),
(309,108,l),
(346,-52,l),
(329,-117,l),
(279,-131,l),
(304,-170,l),
(337,-220,l),
(463,-225,l)
);
},
{
closed = 1;
nodes = (
(474,334,l),
(456,504,l),
(407,529,l),
(322,515,l),
(319,318,l),
(298,192,l),
(352,136,l),
(413,18,l)
);
},
{
closed = 1;
nodes = (
(407,428,l),
(407,529,l),
(199,524,l),
(96,504,l),
(44,417,l),
(165,397,l)
);
},
{
closed = 1;
nodes = (
(506,365,l),
(542,433,l),
(543,527,l),
(389,507,l),
(392,465,l),
(440,354,l)
);
}
);
width = 548;
}
);
},
{
glyphname = h.ss01;
kernLeft = h;
kernRight = n;
lastChange = "2024-05-07 16:49:39 +0000";
layers = (
{
anchors = (
{
name = bottom;
pos = (265,0);
},
{
name = center;
pos = (128,571);
},
{
name = top;
pos = (131,699);
}
);
layerId = m01;
shapes = (
{
closed = 1;
nodes = (
(277,19,l),
(280,107,l),
(222,143,l),
(227,520,l),
(229,606,l),
(96,658,l),
(52,596,l),
(59,94,l),
(35,34,l),
(59,-11,l)
);
},
{
closed = 1;
nodes = (
(403,-94,l),
(479,-29,l),
(487,60,l),
(479,388,l),
(500,508,l),
(376,528,l),
(295,521,l),
(223,413,l),
(222,379,l),
(296,424,l),
(320,414,l),
(325,258,l),
(332,29,l),
(332,-48,l),
(313,-171,l)
);
},
{
closed = 1;
nodes = (
(229,606,l),
(229,683,l),
(118,713,l),
(32,686,l),
(15,595,l),
(90,584,l)
);
}
);
width = 524;
}
);
metricLeft = h;
metricRight = n;
},
{
glyphname = s.ss01;
kernLeft = s;
kernRight = s;
lastChange = "2024-05-07 16:49:39 +0000";
layers = (
{
anchors = (
{
name = bottom;
pos = (249,35);
},
{
name = top;
pos = (219,538);
}
);
layerId = m01;
shapes = (
{
closed = 1;
nodes = (
(124,204,l),
(184,247,l),
(181,457,l),
(184,528,l),
(22,482,l),
(23,204,l)
);
},
{
closed = 1;
nodes = (
(407,69,l),
(272,69,l),
(152,185,l),
(38,114,l),
(120,0,l),
(225,-3,l)
);
},
{
closed = 1;
nodes = (
(427,277,l),
(345,342,l),
(26,268,l),
(28,262,l),
(311,225,l)
);
},
{
closed = 1;
nodes = (
(411,21,l),
(427,277,l),
(302,319,l),
(273,47,l)
);
},
{
closed = 1;
nodes = (
(406,398,l),
(453,447,l),
(436,520,l),
(259,530,l),
(75,523,l),
(125,412,l),
(272,426,l),
(303,361,l)
);
}
);
width = 453;
}
);
metricLeft = s;
metricRight = s;
},
{
glyphname = zero;
lastChange = "2024-05-07 16:45:18 +0000";
layers = (
{
layerId = m01;
shapes = (
{
closed = 1;
nodes = (
(185,552,l),
(427,642,l),
(309,728,l),
(75,639,l),
(45,170,l),
(48,68,l),
(201,50,l)
);
},
{
closed = 1;
nodes = (
(405,0,l),
(510,214,l),
(515,566,l),
(363,547,l),
(330,122,l),
(74,90,l),
(117,-15,l)
);
},
{
closed = 1;
nodes = (
(533,575,l),
(489,656,l),
(168,634,l),
(172,514,l),
(485,539,l),
(523,548,l)
);
}
);
width = 538;
}
);
unicode = 48;
},
{
glyphname = one;
lastChange = "2024-05-07 16:45:18 +0000";
layers = (
{
layerId = m01;
shapes = (
{
closed = 1;
nodes = (
(240,0,l),
(267,67,l),
(302,533,l),
(306,662,l),
(138,597,l),
(122,8,l)
);
},
{
closed = 1;
nodes = (
(306,0,l),
(325,73,l),
(313,145,l),
(85,112,l),
(54,26,l),
(82,-22,l)
);
},
{
closed = 1;
nodes = (
(302,533,l),
(310,687,l),
(214,716,l),
(85,647,l),
(56,570,l),
(63,529,l)
);
}
);
width = 345;
}
);
unicode = 49;
},
{
glyphname = two;
lastChange = "2024-05-07 16:45:18 +0000";
layers = (
{
layerId = m01;
shapes = (
{
closed = 1;
nodes = (
(222,42,l),
(256,189,l),
(535,366,l),
(545,535,l),
(465,670,l),
(362,401,l),
(70,210,l),
(61,146,l),
(59,-15,l)
);
},
{
closed = 1;
nodes = (
(471,-13,l),
(486,18,l),
(146,174,l),
(79,88,l),
(59,-15,l)
);
},
{
closed = 1;
nodes = (
(206,409,l),
(224,462,l),
(304,702,l),
(70,613,l),
(62,556,l),
(42,386,l)
);
},
{
closed = 1;
nodes = (
(522,23,l),
(542,215,l),
(491,224,l),
(438,224,l),
(328,153,l),
(355,8,l)
);
},
{
closed = 1;
nodes = (
(423,638,l),
(485,709,l),
(146,687,l),
(134,625,l)
);
},
{
closed = 1;
nodes = (
(539,652,l),
(485,709,l),
(304,702,l),
(164,592,l),
(545,535,l)
);
}
);
width = 560;
}
);
unicode = 50;
},
{
glyphname = three;
lastChange = "2024-05-07 16:45:18 +0000";
layers = (
{
layerId = m01;
shapes = (
{
closed = 1;
nodes = (
(429,361,l),
(575,551,l),
(522,683,l),
(312,719,l),
(210,657,l),
(232,634,l),
(361,564,l),
(344,296,l)
);
},
{
closed = 1;
nodes = (
(193,94,l),
(254,177,l),
(188,242,l),
(146,266,l),
(58,260,l),
(64,64,l)
);
},
{
closed = 1;
nodes = (
(397,27,l),
(462,0,l),
(170,150,l),
(64,64,l),
(152,-13,l)
);
},
{
closed = 1;
nodes = (
(542,262,l),
(429,361,l),
(344,296,l),
(318,66,l),
(462,0,l)
);
},
{
closed = 1;
nodes = (
(359,447,l),
(252,384,l),
(236,326,l),
(359,285,l)
);
},
{
closed = 1;
nodes = (
(220,472,l),
(242,595,l),
(382,528,l),
(487,671,l),
(170,671,l),
(30,517,l),
(46,450,l)
);
}
);
width = 579;
}
);
unicode = 51;
},
{
glyphname = four;
lastChange = "2024-05-07 16:45:18 +0000";
layers = (
{
layerId = m01;
shapes = (
{
closed = 1;
nodes = (
(482,182,l),
(516,271,l),
(503,335,l),
(136,238,l),
(163,287,l),
(468,655,l),
(407,704,l),
(311,682,l),
(16,326,l),
(62,137,l)
);
},
{
closed = 1;
nodes = (
(407,704,l),
(341,590,l),
(298,144,l),
(254,17,l),
(312,-34,l),
(453,6,l),
(471,500,l),
(503,675,l)
);
}
);
width = 523;
}
);
unicode = 52;
},
{
glyphname = five;
lastChange = "2024-05-07 16:45:18 +0000";
layers = (
{
layerId = m01;
shapes = (
{
closed = 1;
nodes = (
(349,279,l),
(424,227,l),
(469,307,l),
(527,408,l),
(414,466,l),
(86,323,l),
(50,255,l),
(77,215,l)
);
},
{
closed = 1;
nodes = (
(386,-5,l),
(486,21,l),
(435,170,l),
(222,75,l),
(194,194,l),
(100,176,l),
(54,22,l),
(170,-17,l)
);
},
{
closed = 1;
nodes = (
(561,277,l),
(527,408,l),
(401,337,l),
(414,42,l),
(486,21,l)
);
},
{
closed = 1;
nodes = (
(198,335,l),
(204,466,l),
(386,670,l),
(319,711,l),
(86,622,l),
(86,323,l)
);
},
{
closed = 1;
nodes = (
(398,542,l),
(397,513,l),
(560,536,l),
(582,582,l),
(529,715,l),
(305,683,l),
(189,475,l)
);
}
);
width = 606;
}
);
unicode = 53;
},
{
glyphname = six;
lastChange = "2024-05-07 16:45:18 +0000";
layers = (
{
layerId = m01;
shapes = (
{
closed = 1;
nodes = (
(246,-2,l),
(234,569,l),
(384,650,l),
(319,711,l),
(86,622,l),
(98,136,l),
(74,2,l)
);
},
{
closed = 1;
nodes = (
(398,14,l),
(498,41,l),
(418,86,l),
(150,126,l),
(102,38,l),
(136,-21,l)
);
},
{
closed = 1;
nodes = (
(363,330,l),
(393,362,l),
(398,314,l),
(561,256,l),
(518,394,l),
(447,457,l),
(72,347,l),
(31,243,l),
(58,205,l)
);
},
{
closed = 1;
nodes = (
(561,256,l),
(491,385,l),
(393,362,l),
(374,61,l),
(498,41,l)
);
},
{
closed = 1;
nodes = (
(414,506,l),
(561,537,l),
(582,582,l),
(529,715,l),
(305,683,l),
(234,569,l),
(398,542,l),
(397,518,l)
);
}
);
width = 582;
}
);
unicode = 54;
},
{
glyphname = seven;
lastChange = "2024-05-07 16:45:18 +0000";
layers = (
{
layerId = m01;
shapes = (
{
closed = 1;
nodes = (
(301,-49,l),
(384,25,l),
(556,574,l),
(494,703,l),
(269,706,l),
(238,577,l),
(413,611,l),
(192,-14,l)
);
},
{
closed = 1;
nodes = (
(230,470,l),
(251,493,l),
(329,686,l),
(308,721,l),
(56,673,l),
(98,481,l)
);
},
{
closed = 1;
nodes = (
(516,395,l),
(220,362,l),
(170,254,l),
(190,219,l),
(479,222,l),
(516,271,l),
(534,362,l)
);
}
);
width = 563;
}
);
unicode = 55;
},
{
glyphname = eight;
lastChange = "2024-05-07 16:45:18 +0000";
layers = (
{
layerId = m01;
shapes = (
{
closed = 1;
nodes = (
(430,0,l),
(475,140,l),
(182,90,l),
(235,266,l),
(168,330,l),
(93,286,l),
(26,109,l),
(104,-16,l)
);
},
{
closed = 1;
nodes = (
(430,370,l),
(414,459,l),
(167,382,l),
(101,240,l),
(325,269,l)
);
},
{
closed = 1;
nodes = (
(186,375,l),
(190,457,l),
(202,628,l),
(109,650,l),
(46,435,l),
(150,330,l)
);
},
{
closed = 1;
nodes = (
(561,256,l),
(491,385,l),
(384,306,l),
(370,74,l),
(493,54,l)
);
},
{
closed = 1;
nodes = (
(491,385,l),
(582,582,l),
(529,715,l),
(179,683,l),
(139,506,l),
(405,566,l),
(384,306,l)
);
}
);
width = 582;
}
);
unicode = 56;
},
{
glyphname = nine;
lastChange = "2024-05-07 16:45:18 +0000";
layers = (
{
layerId = m01;
shapes = (
{
closed = 1;
nodes = (
(307,0,l),
(324,121,l),
(188,145,l),
(146,198,l),
(38,170,l),
(18,125,l),
(70,-9,l)
);
},
{
closed = 1;
nodes = (
(190,358,l),
(165,630,l),
(43,666,l),
(18,408,l),
(87,279,l)
);
},
{
closed = 1;
nodes = (
(254,260,l),
(355,337,l),
(396,441,l),
(370,479,l),
(248,382,l),
(74,365,l),
(43,298,l),
(126,240,l)
);
},
{
closed = 1;
nodes = (
(442,664,l),
(364,720,l),
(142,692,l),
(43,666,l),
(154,620,l),
(392,554,l)
);
},
{
closed = 1;
nodes = (
(439,703,l),
(334,690,l),
(328,253,l),
(324,121,l),
(165,50,l),
(307,0,l),
(462,125,l),
(473,197,l),
(492,670,l)
);
}
);
width = 502;
}
);
unicode = 57;
},
{
glyphname = period;
kernLeft = period;
kernRight = comma;
lastChange = "2024-05-10 13:49:53 +0000";
layers = (
{
layerId = m01;
shapes = (
{
closed = 1;
nodes = (
(202,11,l),
(194,79,l),
(123,169,l),
(21,131,l),
(25,36,l),
(90,-14,l)
);
}
);
width = 214;
}
);
unicode = 46;
},
{
glyphname = comma;
kernLeft = a;
kernRight = comma_d;
lastChange = "2024-05-07 16:45:18 +0000";
layers = (
{
layerId = m01;
shapes = (
{
closed = 1;
nodes = (
(165,-124,l),
(201,14,l),
(72,44,l),
(92,-50,l),
(61,-61,l),
(26,-161,l),
(106,-206,l)
);
},
{
closed = 1;
nodes = (
(201,14,l),
(206,110,l),
(98,150,l),
(24,57,l),
(16,-12,l),
(133,-38,l)
);
}
);
width = 246;
}
);
unicode = 44;
},
{
glyphname = colon;
lastChange = "2024-05-07 16:45:18 +0000";
layers = (
{
layerId = m01;
shapes = (
{
closed = 1;
nodes = (
(201,335,l),
(197,429,l),
(132,480,l),
(20,454,l),
(28,387,l),
(97,297,l)
);
},
{
closed = 1;
nodes = (
(201,25,l),
(193,93,l),
(122,183,l),
(20,145,l),
(24,50,l),
(89,0,l)
);
}
);
width = 301;
}
);
unicode = 58;
},
{
glyphname = semicolon;
kernLeft = a;
lastChange = "2024-05-07 16:45:18 +0000";
layers = (
{
layerId = m01;
shapes = (
{
closed = 1;
nodes = (
(166,-83,l),
(201,45,l),
(76,72,l),
(96,-15,l),
(66,-24,l),
(33,-116,l),
(110,-158,l)
);
},
{
closed = 1;
nodes = (
(201,45,l),
(205,133,l),
(101,169,l),
(30,84,l),
(22,21,l),
(135,-3,l)
);
},
{
closed = 1;
nodes = (
(209,299,l),
(201,370,l),
(128,465,l),
(20,425,l),
(25,299,l),
(92,272,l)
);
}
);
width = 369;
}
);
unicode = 59;
},
{
glyphname = exclam;
lastChange = "2024-05-07 16:45:18 +0000";
layers = (
{
layerId = m01;
shapes = (
{
closed = 1;
nodes = (
(218,245,l),
(262,382,l),
(273,666,l),
(215,710,l),
(98,708,l),
(77,601,l),
(128,242,l),
(179,222,l)
);
},
{
closed = 1;
nodes = (
(282,11,l),
(274,78,l),
(204,168,l),
(101,130,l),
(105,36,l),
(170,-15,l)
);
}
);
width = 318;
}
);
unicode = 33;
},
{
glyphname = exclamdown;
lastChange = "2024-05-07 16:45:18 +0000";
layers = (
{
layerId = m01;
shapes = (
{
closed = 1;
nodes = (
(128,255,l),
(77,-104,l),
(98,-211,l),
(215,-213,l),
(273,-170,l),
(262,115,l),
(218,252,l),
(179,274,l)
);
},
{
closed = 1;
nodes = (
(105,461,l),
(101,367,l),
(204,329,l),
(274,419,l),
(282,486,l),
(170,512,l)
);
}
);
width = 318;
}
);
unicode = 161;
},
{
glyphname = question;
lastChange = "2024-05-07 16:45:18 +0000";
layers = (
{
layerId = m01;
shapes = (
{
closed = 1;
nodes = (
(318,286,l),
(314,379,l),
(469,463,l),
(439,732,l),
(184,677,l),
(97,635,l),
(287,647,l),
(303,460,l),
(242,466,l),
(187,335,l),
(202,254,l),
(290,247,l)
);
},
{
closed = 1;
nodes = (
(370,7,l),
(362,75,l),
(291,165,l),
(189,127,l),
(193,32,l),
(258,-18,l)
);
},
{
closed = 1;
nodes = (
(198,470,l),
(234,600,l),
(330,628,l),
(316,747,l),
(90,721,l),
(68,625,l),
(56,441,l),
(159,417,l)
);
}
);
width = 504;
}
);
unicode = 63;
},
{
glyphname = questiondown;
lastChange = "2024-05-07 16:45:18 +0000";
layers = (
{
layerId = m01;
shapes = (
{
closed = 1;
nodes = (
(202,244,l),
(187,163,l),
(242,32,l),
(303,38,l),
(286,-168,l),
(96,-155,l),
(184,-179,l),
(439,-234,l),
(469,34,l),
(314,119,l),
(318,212,l),
(290,250,l)
);
},
{
closed = 1;
nodes = (
(193,466,l),
(189,371,l),
(291,333,l),
(362,423,l),
(370,490,l),
(258,516,l)
);
},
{
closed = 1;
nodes = (
(56,57,l),
(68,-127,l),
(90,-223,l),
(316,-250,l),
(330,-130,l),
(234,-102,l),
(198,28,l),
(159,81,l)
);
}
);
width = 480;
}
);
unicode = 191;
},
{
glyphname = bullet;
lastChange = "2024-05-07 16:45:18 +0000";
layers = (
{
layerId = m01;
shapes = (
{
closed = 1;
nodes = (
(373,300,l),
(329,386,l),
(265,430,l),
(165,368,l),
(178,240,l),
(316,189,l)
);
}
);
width = 534;
}
);
unicode = 8226;
},
{
glyphname = asterisk;
lastChange = "2024-05-07 16:45:18 +0000";
layers = (
{
layerId = m01;
shapes = (
{
closed = 1;
nodes = (
(286,547,l),
(199,572,l),
(207,603,l),
(142,678,l),
(69,630,l),
(106,546,l),
(200,452,l)
);
},
{
closed = 1;
nodes = (
(175,356,l),
(296,409,l),
(240,523,l),
(184,452,l),
(158,471,l),
(66,438,l),
(84,351,l)
);
},
{
closed = 1;
nodes = (
(389,358,l),
(375,490,l),
(250,470,l),
(300,395,l),
(275,377,l),
(278,278,l),
(366,269,l)
);
},
{
closed = 1;
nodes = (
(362,455,l),
(366,543,l),
(262,580,l),
(192,494,l),
(184,431,l),
(297,407,l)
);
},
{
closed = 1;
nodes = (
(318,602,l),
(350,605,l),
(395,692,l),
(325,744,l),
(259,679,l),
(205,558,l),
(324,512,l)
);
},
{
closed = 1;
nodes = (
(525,530,l),
(444,573,l),
(313,589,l),
(304,462,l),
(387,494,l),
(400,465,l),
(496,446,l)
);
}
);
width = 534;
}
);
unicode = 42;
},
{
glyphname = numbersign;
lastChange = "2024-05-07 16:45:18 +0000";
layers = (
{
layerId = m01;
shapes = (
{
closed = 1;
nodes = (
(208,-69,l),
(381,603,l),
(396,654,l),
(396,706,l),
(316,728,l),
(263,634,l),
(84,-38,l),
(119,-92,l)
);
},
{
closed = 1;
nodes = (
(470,-69,l),
(642,603,l),
(658,654,l),
(658,706,l),
(576,702,l),
(525,634,l),
(346,-38,l),
(362,-70,l)
);
},
{
closed = 1;
nodes = (
(106,358,l),
(650,383,l),
(703,383,l),
(753,398,l),
(751,481,l),
(646,505,l),
(100,486,l),
(58,437,l)
);
},
{
closed = 1;
nodes = (
(30,108,l),
(573,123,l),
(626,123,l),
(675,138,l),
(658,230,l),
(569,245,l),
(26,235,l),
(0,158,l)
);
}
);
width = 753;
}
);
unicode = 35;
},
{
glyphname = slash;
lastChange = "2024-05-07 16:45:18 +0000";
layers = (
{
layerId = m01;
shapes = (
{
closed = 1;
nodes = (
(172,-172,l),
(366,611,l),
(382,662,l),
(382,714,l),
(270,734,l),
(218,639,l),
(17,-143,l),
(52,-198,l)
);
}
);
width = 382;
}
);
unicode = 47;
},
{
glyphname = backslash;
lastChange = "2024-05-07 16:45:18 +0000";
layers = (
{
layerId = m01;
shapes = (
{
closed = 1;
nodes = (
(382,-143,l),
(181,639,l),
(128,734,l),
(17,714,l),
(17,662,l),
(32,611,l),
(226,-172,l),
(346,-198,l)
);
}
);
width = 438;
}
);
unicode = 92;
},
{
glyphname = hyphen;
kernLeft = hyphen;
kernRight = hyphen;
lastChange = "2024-05-07 16:45:18 +0000";
layers = (
{
layerId = m01;
shapes = (
{
closed = 1;
nodes = (
(61,272,l),
(56,195,l),
(94,188,l),
(350,193,l),
(367,234,l),
(373,286,l),
(334,322,l),
(86,305,l)
);
}
);
width = 429;
}
);
unicode = 45;
},
{
glyphname = endash;
kernLeft = hyphen;
kernRight = hyphen;
lastChange = "2024-05-07 16:45:18 +0000";
layers = (
{
layerId = m01;
shapes = (
{
closed = 1;
nodes = (
(85,272,l),
(80,195,l),
(118,188,l),
(545,193,l),
(562,234,l),
(568,286,l),
(528,322,l),
(110,305,l)
);
}
);
width = 648;
}
);
unicode = 8211;
},
{
glyphname = emdash;
kernLeft = hyphen;
kernRight = hyphen;
lastChange = "2024-05-07 16:45:18 +0000";
layers = (
{
layerId = m01;
shapes = (
{
closed = 1;
nodes = (
(107,272,l),
(102,195,l),
(140,188,l),
(826,193,l),
(842,234,l),
(848,286,l),
(809,322,l),
(132,305,l)
);
}
);
width = 864;
}
);
unicode = 8212;
},
{
glyphname = underscore;
kernLeft = hyphen;
kernRight = hyphen;
lastChange = "2024-05-07 16:45:18 +0000";
layers = (
{
layerId = m01;
shapes = (
{
closed = 1;
nodes = (
(107,0,l),
(102,-77,l),
(140,-84,l),
(397,-79,l),
(414,-38,l),
(419,14,l),
(380,50,l),
(132,33,l)
);
}
);
width = 480;
}
);
unicode = 95;
},
{
glyphname = parenleft;
lastChange = "2024-05-07 16:45:18 +0000";
layers = (
{
layerId = m01;
shapes = (
{
closed = 1;
nodes = (
(262,714,l),
(326,657,l),
(314,604,l),
(286,560,l),
(211,502,l),
(145,384,l),
(195,50,l),
(286,-7,l),
(336,-76,l),
(262,-140,l),
(98,-57,l),
(40,212,l),
(46,465,l),
(138,658,l)
);
}
);
width = 336;
}
);
unicode = 40;
},
{
glyphname = parenright;
lastChange = "2024-05-07 16:45:18 +0000";
layers = (
{
layerId = m01;
shapes = (
{
closed = 1;
nodes = (
(74,-140,l),
(10,-83,l),
(22,-30,l),
(50,14,l),
(125,71,l),
(191,190,l),
(141,530,l),
(50,587,l),
(0,656,l),
(74,720,l),
(238,637,l),
(296,325,l),
(290,109,l),
(198,-85,l)
);
}
);
width = 440;
}
);
unicode = 41;
},
{
glyphname = braceleft;
lastChange = "2024-05-07 16:45:18 +0000";
layers = (
{
layerId = m01;
shapes = (
{
closed = 1;
nodes = (
(198,703,l),
(133,658,l),
(133,467,l),
(115,373,l),
(50,296,l),
(115,227,l),
(140,119,l),
(103,-26,l),
(167,-102,l),
(234,-121,l),
(385,-121,l),
(363,-46,l),
(264,9,l),
(285,130,l),
(254,215,l),
(182,296,l),
(271,373,l),
(290,467,l),
(266,577,l),
(367,628,l),
(406,703,l)
);
}
);
width = 425;
}
);
unicode = 123;
},
{
glyphname = braceright;
lastChange = "2024-05-07 16:45:18 +0000";
layers = (
{
layerId = m01;
shapes = (
{
closed = 1;
nodes = (
(89,628,l),
(190,577,l),
(166,467,l),
(185,373,l),
(274,296,l),
(202,215,l),
(171,130,l),
(192,9,l),
(93,-46,l),
(71,-121,l),
(222,-121,l),
(289,-102,l),
(353,-26,l),
(316,119,l),
(341,227,l),
(406,296,l),
(341,373,l),
(323,467,l),
(323,658,l),
(258,703,l),
(50,703,l)
);
}
);
width = 426;
}
);
unicode = 125;
},
{
glyphname = bracketleft;
lastChange = "2024-05-07 16:45:18 +0000";
layers = (
{
layerId = m01;
shapes = (
{
closed = 1;
nodes = (
(338,594,l),
(210,520,l),
(220,32,l),
(324,-44,l),
(319,-129,l),
(82,-130,l),
(81,693,l),
(340,703,l)
);
}
);
width = 420;
}
);
unicode = 91;
},
{
glyphname = bracketright;
lastChange = "2024-05-07 16:45:18 +0000";
layers = (
{
layerId = m01;
shapes = (
{
closed = 1;
nodes = (
(340,693,l),
(339,-130,l),
(102,-129,l),
(97,-44,l),
(201,32,l),
(210,520,l),
(83,594,l),
(81,703,l)
);
}
);
width = 420;
}
);
unicode = 93;
},
{
glyphname = quotesinglbase;
kernRight = comma_d;
lastChange = "2024-05-07 16:45:18 +0000";
layers = (
{
layerId = m01;
shapes = (
{
closed = 1;
nodes = (
(185,-116,l),
(221,22,l),
(92,52,l),
(112,-42,l),
(81,-53,l),
(46,-153,l),
(126,-198,l)
);
},
{
closed = 1;
nodes = (
(221,22,l),
(226,118,l),
(118,158,l),
(44,65,l),
(36,-4,l),
(153,-30,l)
);
}
);
width = 242;
}
);
unicode = 8218;
},
{
glyphname = quotedblleft;
kernLeft = comma_up;
kernRight = comma_up;
lastChange = "2024-05-07 16:45:18 +0000";
layers = (
{
layerId = m01;
shapes = (
{
closed = 1;
nodes = (
(57,632,l),
(21,494,l),
(150,464,l),
(130,558,l),
(161,569,l),
(195,669,l),
(115,714,l)
);
},
{
closed = 1;
nodes = (
(21,494,l),
(16,398,l),
(124,358,l),
(198,451,l),
(206,520,l),
(89,546,l)
);
},
{
closed = 1;
nodes = (
(283,632,l),
(247,494,l),
(376,464,l),
(356,558,l),
(387,569,l),
(422,669,l),
(342,714,l)
);
},
{
closed = 1;
nodes = (
(247,494,l),
(242,398,l),
(350,358,l),
(424,451,l),
(432,520,l),
(315,546,l)
);
}
);
width = 480;
}
);
unicode = 8220;
},
{
glyphname = quotedblright;
kernLeft = comma_up;
kernRight = comma_up;
lastChange = "2024-05-07 16:45:18 +0000";
layers = (
{
layerId = m01;
shapes = (
{
closed = 1;
nodes = (
(391,440,l),
(427,578,l),
(298,608,l),
(318,514,l),
(287,503,l),
(253,403,l),
(333,358,l)
);
},
{
closed = 1;
nodes = (
(427,578,l),
(432,674,l),
(324,714,l),
(250,621,l),
(242,552,l),
(359,526,l)
);
},
{
closed = 1;
nodes = (
(165,440,l),
(201,578,l),
(72,608,l),
(92,514,l),
(61,503,l),
(26,403,l),
(106,358,l)
);
},
{
closed = 1;
nodes = (
(201,578,l),
(206,674,l),
(98,714,l),
(24,621,l),
(16,552,l),
(133,526,l)
);
}
);
width = 480;
}
);
unicode = 8221;
},
{
glyphname = quoteleft;
kernLeft = comma_up;
kernRight = comma_up;
lastChange = "2024-05-07 16:45:18 +0000";
layers = (
{
layerId = m01;
shapes = (
{
closed = 1;
nodes = (
(57,632,l),
(21,494,l),
(150,464,l),
(130,558,l),
(161,569,l),
(195,669,l),
(115,714,l)
);
},
{
closed = 1;
nodes = (
(21,494,l),
(16,398,l),
(124,358,l),
(198,451,l),
(206,520,l),
(89,546,l)
);
}
);
width = 222;
}
);
unicode = 8216;
},
{
glyphname = quoteright;
kernLeft = comma_up;
kernRight = comma_up;
lastChange = "2024-05-07 16:45:18 +0000";
layers = (
{
layerId = m01;
shapes = (
{
closed = 1;
nodes = (
(165,440,l),
(201,578,l),
(72,608,l),
(92,514,l),
(61,503,l),
(26,403,l),
(106,358,l)
);
},
{
closed = 1;
nodes = (
(201,578,l),
(206,674,l),
(98,714,l),
(24,621,l),
(16,552,l),
(133,526,l)
);
}
);
width = 222;
}
);
unicode = 8217;
},
{
glyphname = guillemetleft;
kernLeft = hyphen;
kernRight = hyphen;
lastChange = "2024-05-07 16:45:18 +0000";
layers = (
{
layerId = m01;
shapes = (
{
closed = 1;
nodes = (
(220,77,l),
(186,75,l),
(32,214,l),
(16,264,l),
(199,457,l),
(240,457,l),
(286,406,l),
(271,348,l),
(162,258,l),
(286,158,l),
(286,111,l)
);
},
{
closed = 1;
nodes = (
(450,93,l),
(417,91,l),
(262,214,l),
(246,264,l),
(430,457,l),
(470,457,l),
(516,406,l),
(502,348,l),
(392,258,l),
(499,178,l),
(499,132,l)
);
}
);
width = 532;
}
);
unicode = 171;
},
{
glyphname = guillemetright;
kernLeft = hyphen;
kernRight = hyphen;
lastChange = "2024-05-07 16:45:18 +0000";
layers = (
{
layerId = m01;
shapes = (
{
closed = 1;
nodes = (
(312,422,l),
(346,424,l),
(500,286,l),
(516,235,l),
(333,42,l),
(292,42,l),
(246,94,l),
(261,151,l),
(370,242,l),
(246,342,l),
(246,388,l)
);
},
{
closed = 1;
nodes = (
(82,406,l),
(115,408,l),
(270,286,l),
(286,235,l),
(102,42,l),
(62,42,l),
(16,94,l),
(30,151,l),
(140,242,l),
(33,321,l),
(33,367,l)
);
}
);
width = 530;
}
);
unicode = 187;
},
{
glyphname = guilsinglleft;
kernLeft = hyphen;
kernRight = hyphen;
lastChange = "2024-05-07 16:45:18 +0000";
layers = (
{
layerId = m01;
shapes = (
{
closed = 1;
nodes = (
(306,342,l),
(219,242,l),
(291,151,l),
(306,94,l),
(260,42,l),
(219,42,l),
(36,235,l),
(52,286,l),
(206,424,l),
(240,422,l),
(306,388,l)
);
}
);
width = 306;
}
);
unicode = 8249;
},
{
glyphname = guilsinglright;
kernLeft = hyphen;
kernRight = hyphen;
lastChange = "2024-05-07 16:45:18 +0000";
layers = (
{
layerId = m01;
shapes = (
{
closed = 1;
nodes = (
(82,422,l),
(115,424,l),
(270,286,l),
(286,235,l),
(102,42,l),
(62,42,l),
(16,94,l),
(30,151,l),
(102,242,l),
(16,342,l),
(16,388,l)
);
}
);
width = 302;
}
);
unicode = 8250;
},
{
glyphname = quotedbl;
lastChange = "2024-05-07 16:45:18 +0000";
layers = (
{
layerId = m01;
shapes = (
{
closed = 1;
nodes = (
(121,708,l),
(166,705,l),
(166,581,l),
(169,504,l),
(124,495,l),
(52,531,l),
(44,692,l)
);
},
{
closed = 1;
nodes = (
(234,708,l),
(306,705,l),
(307,581,l),
(310,504,l),
(238,495,l),
(199,531,l),
(191,692,l)
);
}
);
width = 326;
}
);
unicode = 34;
},
{
glyphname = quotesingle;
kernRight = comma_up;
lastChange = "2024-05-07 16:45:18 +0000";
layers = (
{
layerId = m01;
shapes = (
{
closed = 1;
nodes = (
(165,440,l),
(201,578,l),
(72,608,l),
(92,514,l),
(61,503,l),
(26,403,l),
(106,358,l)
);
},
{
closed = 1;
nodes = (
(201,578,l),
(206,674,l),
(98,714,l),
(24,621,l),
(16,552,l),
(133,526,l)
);
}
);
width = 208;
}
);
unicode = 39;
},
{
glyphname = at;
lastChange = "2024-05-07 16:45:18 +0000";
layers = (
{
layerId = m01;
shapes = (
{
closed = 1;
nodes = (
(468,91,l),
(560,142,l),
(567,250,l),
(482,226,l),
(412,208,l),
(361,264,l),
(359,396,l),
(490,373,l),
(550,322,l),
(553,439,l),
(447,487,l),
(366,448,l),
(240,375,l),
(246,194,l),
(302,64,l)
);
},
{
closed = 1;
nodes = (
(724,74,l),
(751,152,l),
(718,152,l),
(673,218,l),
(681,466,l),
(542,487,l),
(535,418,l),
(537,186,l),
(513,127,l),
(537,82,l)
);
},
{
closed = 1;
nodes = (
(724,74,l),
(807,84,l),
(841,142,l),
(892,230,l),
(913,446,l),
(871,601,l),
(674,698,l),
(382,711,l),
(278,668,l),
(115,530,l),
(48,321,l),
(80,120,l),
(179,-44,l),
(286,-109,l),
(530,-147,l),
(770,-105,l),
(770,-10,l),
(696,39,l),
(571,-2,l),
(401,-22,l),
(325,-10,l),
(238,78,l),
(185,217,l),
(181,394,l),
(314,550,l),
(563,602,l),
(713,536,l),
(762,396,l),
(762,300,l),
(762,182,l),
(751,152,l)
);
},
{
closed = 1;
nodes = (
(579,434,l),
(647,343,l),
(708,377,l),
(724,413,l),
(709,489,l),
(542,487,l)
);
}
);
width = 976;
}
);
unicode = 64;
},
{
glyphname = ampersand;
lastChange = "2024-05-07 16:45:18 +0000";
layers = (
{
layerId = m01;
shapes = (
{
closed = 1;
nodes = (
(639,2,l),
(654,67,l),
(647,142,l),
(320,366,l),
(214,487,l),
(207,648,l),
(82,660,l),
(30,563,l),
(75,461,l),
(166,347,l),
(392,182,l),
(541,-10,l)
);
},
{
closed = 1;
nodes = (
(434,60,l),
(465,124,l),
(541,202,l),
(610,252,l),
(640,306,l),
(582,386,l),
(489,331,l),
(392,242,l),
(270,62,l),
(175,109,l),
(191,233,l),
(228,194,l),
(435,395,l),
(500,524,l),
(415,486,l),
(354,495,l),
(192,390,l),
(38,229,l),
(0,101,l),
(44,5,l),
(194,-58,l)
);
},
{
closed = 1;
nodes = (
(525,493,l),
(541,575,l),
(498,654,l),
(202,716,l),
(95,604,l),
(144,494,l),
(246,564,l),
(319,597,l),
(349,545,l),
(312,438,l)
);
}
);
width = 654;
}
);
unicode = 38;
},
{
glyphname = section;
lastChange = "2024-05-07 16:45:18 +0000";
layers = (
{
layerId = m01;
shapes = (
{
closed = 1;
nodes = (
(187,294,l),
(247,337,l),
(232,514,l),
(280,588,l),
(74,539,l),
(86,294,l)
);
},
{
closed = 1;
nodes = (
(490,369,l),
(407,434,l),
(89,358,l),
(91,352,l),
(374,317,l)
);
},
{
closed = 1;
nodes = (
(470,137,l),
(490,369,l),
(364,411,l),
(342,144,l)
);
},
{
closed = 1;
nodes = (
(468,490,l),
(515,539,l),
(499,628,l),
(321,622,l),
(126,580,l),
(176,469,l),
(334,518,l),
(365,453,l)
);
},
{
closed = 1;
nodes = (
(167,133,l),
(229,112,l),
(214,289,l),
(283,358,l),
(83,316,l),
(94,134,l)
);
},
{
closed = 1;
nodes = (
(452,-38,l),
(222,33,l),
(216,62,l),
(176,70,l),
(42,18,l),
(41,-96,l),
(270,-110,l)
);
},
{
closed = 1;
nodes = (
(471,144,l),
(389,209,l),
(94,133,l),
(97,127,l),
(355,92,l)
);
},
{
closed = 1;
nodes = (
(452,-38,l),
(471,144,l),
(346,186,l),
(301,-93,l)
);
}
);
width = 531;
}
);
unicode = 167;
},
{
glyphname = bar;
lastChange = "2024-05-07 16:45:18 +0000";
layers = (
{
layerId = m01;
shapes = (
{
closed = 1;
nodes = (
(129,691,l),
(222,660,l),
(218,-175,l),
(118,-186,l),
(80,-108,l),
(86,654,l)
);
}
);
width = 302;
}
);
unicode = 124;
},
{
glyphname = dollar;
lastChange = "2024-05-07 16:45:18 +0000";
layers = (
{
layerId = m01;
shapes = (
{
closed = 1;
nodes = (
(205,647,l),
(327,694,l),
(66,605,l),
(43,313,l),
(155,284,l),
(218,313,l)
);
},
{
closed = 1;
nodes = (
(486,22,l),
(203,83,l),
(186,114,l),
(142,127,l),
(34,83,l),
(33,-31,l),
(226,-65,l)
);
},
{
closed = 1;
nodes = (
(486,22,l),
(506,346,l),
(367,315,l),
(248,-48,l)
);
},
{
closed = 1;
nodes = (
(506,346,l),
(424,410,l),
(45,334,l),
(42,270,l),
(386,235,l)
);
},
{
closed = 1;
nodes = (
(486,493,l),
(522,611,l),
(506,700,l),
(327,694,l),
(133,652,l),
(118,602,l),
(182,541,l),
(341,590,l),
(382,456,l)
);
},
{
closed = 1;
nodes = (
(193,-127,l),
(279,-142,l),
(317,-112,l),
(327,31,l),
(286,46,l),
(203,57,l)
);
},
{
closed = 1;
nodes = (
(370,774,l),
(284,789,l),
(246,759,l),
(246,579,l),
(291,606,l),
(360,590,l)
);
}
);
width = 538;
}
);
unicode = 36;
},
{
glyphname = euro;
lastChange = "2024-05-07 16:45:18 +0000";
layers = (
{
layerId = m01;
shapes = (
{
closed = 1;
nodes = (
(74,441,l),
(138,35,l),
(353,59,l),
(242,163,l),
(225,257,l),
(270,502,l),
(306,538,l),
(409,662,l),
(323,694,l),
(138,596,l)
);
},
{
closed = 1;
nodes = (
(593,74,l),
(629,163,l),
(560,193,l),
(452,94,l),
(260,60,l),
(138,35,l),
(187,-20,l),
(410,-30,l)
);
},
{
closed = 1;
nodes = (
(376,564,l),
(507,494,l),
(593,538,l),
(593,626,l),
(490,630,l)
);
},
{
closed = 1;
nodes = (
(452,702,l),
(200,603,l),
(124,498,l),
(174,460,l),
(593,626,l),
(496,679,l)
);
},
{
closed = 1;
nodes = (
(16,338,l),
(38,301,l),
(424,329,l),
(450,378,l),
(452,450,l),
(28,397,l)
);
},
{
closed = 1;
nodes = (
(37,201,l),
(59,163,l),
(390,178,l),
(427,241,l),
(427,290,l),
(49,259,l)
);
}
);
width = 645;
}
);
unicode = 8364;
},
{
glyphname = plus;
lastChange = "2024-05-07 16:45:18 +0000";
layers = (
{
layerId = m01;
shapes = (
{
closed = 1;
nodes = (
(107,272,l),
(102,195,l),
(140,188,l),
(397,193,l),
(414,234,l),
(419,286,l),
(380,322,l),
(132,305,l)
);
},
{
closed = 1;
nodes = (
(278,409,l),
(201,414,l),
(194,376,l),
(198,119,l),
(239,102,l),
(292,97,l),
(328,136,l),
(310,384,l)
);
}
);
width = 480;
}
);
unicode = 43;
},
{
glyphname = equal;
lastChange = "2024-05-07 16:45:18 +0000";
layers = (
{
layerId = m01;
shapes = (
{
closed = 1;
nodes = (
(107,404,l),
(102,327,l),
(140,320,l),
(397,325,l),
(414,366,l),
(419,418,l),
(380,454,l),
(132,437,l)
);
},
{
closed = 1;
nodes = (
(414,158,l),
(419,234,l),
(382,242,l),
(125,237,l),
(108,196,l),
(102,143,l),
(142,107,l),
(390,125,l)
);
}
);
width = 480;
}
);
unicode = 61;
},
{
glyphname = greater;
lastChange = "2024-05-07 16:45:18 +0000";
layers = (
{
layerId = m01;
shapes = (
{
closed = 1;
nodes = (
(21,398,l),
(52,366,l),
(303,229,l),
(55,120,l),
(24,43,l),
(51,6,l),
(97,-5,l),
(534,173,l),
(560,220,l),
(130,490,l),
(50,448,l)
);
}
);
width = 560;
}
);
unicode = 62;
},
{
glyphname = less;
lastChange = "2024-05-07 16:45:18 +0000";
layers = (
{
layerId = m01;
shapes = (
{
closed = 1;
nodes = (
(560,86,l),
(529,119,l),
(278,256,l),
(526,365,l),
(557,442,l),
(530,478,l),
(484,490,l),
(47,312,l),
(21,265,l),
(451,-5,l),
(531,37,l)
);
}
);
width = 560;
}
);
unicode = 60;
},
{
glyphname = percent;
lastChange = "2024-05-07 16:45:18 +0000";
layers = (
{
layerId = m01;
shapes = (
{
closed = 1;
nodes = (
(325,-172,l),
(657,586,l),
(672,637,l),
(672,688,l),
(561,708,l),
(508,614,l),
(170,-143,l),
(205,-198,l)
);
},
{
closed = 1;
nodes = (
(324,306,l),
(338,362,l),
(313,418,l),
(50,364,l),
(94,341,l),
(258,274,l)
);
},
{
closed = 1;
nodes = (
(131,282,l),
(200,346,l),
(158,632,l),
(112,643,l),
(62,626,l),
(0,528,l),
(21,270,l)
);
},
{
closed = 1;
nodes = (
(811,-111,l),
(864,-24,l),
(742,-4,l),
(491,8,l),
(491,-93,l),
(709,-131,l)
);
},
{
closed = 1;
nodes = (
(576,-79,l),
(651,102,l),
(671,235,l),
(532,232,l),
(442,-68,l),
(491,-93,l)
);
},
{
closed = 1;
nodes = (
(364,602,l),
(364,703,l),
(156,698,l),
(54,678,l),
(1,591,l),
(122,571,l)
);
},
{
closed = 1;
nodes = (
(360,332,l),
(414,678,l),
(364,703,l),
(279,690,l),
(235,533,l),
(221,329,l)
);
},
{
closed = 1;
nodes = (
(802,-59,l),
(865,39,l),
(886,296,l),
(775,284,l),
(706,219,l),
(706,-65,l),
(753,-76,l)
);
},
{
closed = 1;
nodes = (
(857,202,l),
(812,322,l),
(634,290,l),
(568,258,l),
(554,202,l),
(579,146,l)
);
}
);
width = 886;
}
);
unicode = 37;
},
{
glyphname = upArrow;
lastChange = "2024-05-07 16:45:18 +0000";
layers = (
{
layerId = m01;
shapes = (
{
closed = 1;
nodes = (
(295,569,l),
(106,310,l),
(50,227,l),
(74,153,l),
(166,136,l),
(452,525,l),
(392,614,l)
);
},
{
closed = 1;
nodes = (
(300,478,l),
(404,307,l),
(576,134,l),
(663,168,l),
(678,237,l),
(452,525,l),
(387,558,l),
(276,525,l)
);
},
{
closed = 1;
nodes = (
(274,-71,l),
(356,-62,l),
(452,22,l),
(388,372,l),
(423,489,l),
(364,446,l),
(268,366,l),
(305,354,l),
(252,-28,l)
);
}
);
width = 728;
}
);
unicode = 8593;
},
{
glyphname = northEastArrow;
lastChange = "2024-05-07 16:45:18 +0000";
layers = (
{
layerId = m01;
shapes = (
{
closed = 1;
nodes = (
(558,494,l),
(238,470,l),
(138,460,l),
(97,394,l),
(143,312,l),
(625,346,l),
(655,448,l)
);
},
{
closed = 1;
nodes = (
(491,430,l),
(428,241,l),
(406,-2,l),
(489,-46,l),
(551,-14,l),
(625,346,l),
(608,416,l),
(511,479,l)
);
},
{
closed = 1;
nodes = (
(55,96,l),
(114,39,l),
(241,20,l),
(467,295,l),
(578,344,l),
(507,362,l),
(385,383,l),
(400,347,l),
(74,141,l)
);
}
);
width = 705;
}
);
unicode = 8599;
},
{
glyphname = rightArrow;
lastChange = "2024-05-07 16:45:18 +0000";
layers = (
{
layerId = m01;
shapes = (
{
closed = 1;
nodes = (
(690,341,l),
(431,530,l),
(349,586,l),
(274,562,l),
(257,470,l),
(646,184,l),
(736,243,l)
);
},
{
closed = 1;
nodes = (
(599,335,l),
(429,231,l),
(255,60,l),
(289,-27,l),
(358,-42,l),
(646,184,l),
(679,249,l),
(646,360,l)
);
},
{
closed = 1;
nodes = (
(50,362,l),
(59,280,l),
(143,184,l),
(493,248,l),
(610,213,l),
(567,272,l),
(487,368,l),
(476,330,l),
(93,384,l)
);
}
);
width = 786;
}
);
unicode = 8594;
},
{
glyphname = southEastArrow;
lastChange = "2024-05-07 16:45:18 +0000";
layers = (
{
layerId = m01;
shapes = (
{
closed = 1;
nodes = (
(620,102,l),
(138,135,l),
(92,54,l),
(133,-13,l),
(233,-23,l),
(553,-46,l),
(650,-1,l)
);
},
{
closed = 1;
nodes = (
(603,31,l),
(620,102,l),
(546,461,l),
(484,494,l),
(401,450,l),
(423,206,l),
(486,17,l),
(506,-32,l)
);
},
{
closed = 1;
nodes = (
(395,100,l),
(380,64,l),
(502,86,l),
(573,103,l),
(462,152,l),
(236,427,l),
(109,408,l),
(50,351,l),
(69,306,l)
);
}
);
width = 700;
}
);
unicode = 8600;
},
{
glyphname = downArrow;
lastChange = "2024-05-07 16:45:18 +0000";
layers = (
{
layerId = m01;
shapes = (
{
closed = 1;
nodes = (
(435,-26,l),
(624,234,l),
(680,316,l),
(656,390,l),
(564,407,l),
(278,18,l),
(338,-71,l)
);
},
{
closed = 1;
nodes = (
(430,66,l),
(326,236,l),
(154,410,l),
(67,375,l),
(52,306,l),
(278,18,l),
(343,-14,l),
(454,18,l)
);
},
{
closed = 1;
nodes = (
(456,614,l),
(374,606,l),
(278,522,l),
(342,171,l),
(307,54,l),
(366,98,l),
(462,178,l),
(425,189,l),
(478,571,l)
);
}
);
width = 730;
}
);
unicode = 8595;
},
{
glyphname = southWestArrow;
lastChange = "2024-05-07 16:45:18 +0000";
layers = (
{
layerId = m01;
shapes = (
{
closed = 1;
nodes = (
(153,-46,l),
(473,-23,l),
(572,-13,l),
(614,54,l),
(567,135,l),
(86,102,l),
(55,-1,l)
);
},
{
closed = 1;
nodes = (
(219,17,l),
(282,206,l),
(304,450,l),
(222,494,l),
(159,461,l),
(86,102,l),
(102,31,l),
(199,-32,l)
);
},
{
closed = 1;
nodes = (
(655,351,l),
(596,408,l),
(470,427,l),
(243,152,l),
(132,103,l),
(203,86,l),
(326,64,l),
(310,100,l),
(637,306,l)
);
}
);
width = 705;
}
);
unicode = 8601;
},
{
glyphname = leftArrow;
lastChange = "2024-05-07 16:45:18 +0000";
layers = (
{
layerId = m01;
shapes = (
{
closed = 1;
nodes = (
(140,184,l),
(529,470,l),
(512,562,l),
(437,586,l),
(355,530,l),
(96,341,l),
(50,243,l)
);
},
{
closed = 1;
nodes = (
(107,249,l),
(140,184,l),
(428,-42,l),
(497,-27,l),
(531,60,l),
(357,231,l),
(187,335,l),
(140,360,l)
);
},
{
closed = 1;
nodes = (
(310,330,l),
(299,368,l),
(219,272,l),
(176,213,l),
(293,248,l),
(643,184,l),
(727,280,l),
(736,362,l),
(693,384,l)
);
}
);
width = 786;
}
);
unicode = 8592;
},
{
glyphname = northWestArrow;
lastChange = "2024-05-07 16:45:18 +0000";
layers = (
{
layerId = m01;
shapes = (
{
closed = 1;
nodes = (
(86,346,l),
(567,312,l),
(614,394,l),
(572,460,l),
(473,470,l),
(153,494,l),
(55,448,l)
);
},
{
closed = 1;
nodes = (
(102,416,l),
(86,346,l),
(159,-14,l),
(222,-46,l),
(304,-2,l),
(282,241,l),
(219,430,l),
(199,479,l)
);
},
{
closed = 1;
nodes = (
(310,347,l),
(326,383,l),
(203,362,l),
(132,344,l),
(243,295,l),
(470,20,l),
(596,39,l),
(655,96,l),
(637,141,l)
);
}
);
width = 705;
}
);
unicode = 8598;
},
{
glyphname = leftRightArrow;
lastChange = "2024-05-07 16:45:18 +0000";
layers = (
{
layerId = m01;
shapes = (
{
closed = 1;
nodes = (
(96,202,l),
(355,14,l),
(437,-42,l),
(512,-18,l),
(529,74,l),
(140,359,l),
(50,300,l)
);
},
{
closed = 1;
nodes = (
(187,208,l),
(357,312,l),
(531,483,l),
(497,570,l),
(428,586,l),
(140,359,l),
(107,294,l),
(140,183,l)
);
},
{
closed = 1;
nodes = (
(581,161,l),
(739,263,l),
(577,359,l),
(293,295,l),
(176,330,l),
(219,271,l),
(299,175,l),
(310,213,l),
(489,184,l)
);
},
{
closed = 1;
nodes = (
(1066,359,l),
(677,74,l),
(694,-18,l),
(769,-42,l),
(851,14,l),
(1110,202,l),
(1156,300,l)
);
},
{
closed = 1;
nodes = (
(1099,294,l),
(1066,359,l),
(778,586,l),
(709,570,l),
(675,483,l),
(849,312,l),
(1019,208,l),
(1066,183,l)
);
},
{
closed = 1;
nodes = (
(981,215,l),
(993,178,l),
(1073,274,l),
(1116,333,l),
(999,298,l),
(586,359,l),
(498,266,l),
(489,184,l),
(681,186,l)
);
}
);
width = 1206;
}
);
unicode = 8596;
},
{
glyphname = upDownArrow;
lastChange = "2024-05-07 16:45:18 +0000";
layers = (
{
layerId = m01;
shapes = (
{
closed = 1;
nodes = (
(433,-235,l),
(622,24,l),
(678,106,l),
(654,181,l),
(562,198,l),
(276,-191,l),
(336,-281,l)
);
},
{
closed = 1;
nodes = (
(428,-144,l),
(324,26,l),
(152,200,l),
(65,166,l),
(50,97,l),
(276,-191,l),
(341,-224,l),
(452,-191,l)
);
},
{
closed = 1;
nodes = (
(440,256,l),
(372,408,l),
(291,181,l),
(340,-38,l),
(305,-155,l),
(364,-112,l),
(460,-32,l),
(423,-21,l),
(452,158,l)
);
},
{
closed = 1;
nodes = (
(276,634,l),
(562,245,l),
(654,262,l),
(678,336,l),
(622,418,l),
(433,678,l),
(336,723,l)
);
},
{
closed = 1;
nodes = (
(341,666,l),
(276,634,l),
(50,346,l),
(65,277,l),
(152,242,l),
(324,416,l),
(428,586,l),
(452,634,l)
);
},
{
closed = 1;
nodes = (
(420,549,l),
(458,560,l),
(362,640,l),
(303,683,l),
(338,566,l),
(291,181,l),
(370,66,l),
(452,158,l),
(450,248,l)
);
}
);
width = 728;
}
);
unicode = 8597;
},
{
glyphname = commaaccentcomb;
lastChange = "2024-05-07 16:45:18 +0000";
layers = (
{
anchors = (
{
name = _bottom;
pos = (202,103);
}
);
layerId = m01;
shapes = (
{
closed = 1;
nodes = (
(54,-65,l),
(105,-128,l),
(154,-137,l),
(202,-77,l),
(244,9,l),
(194,38,l),
(106,6,l)
);
}
);
width = 240;
}
);
unicode = 806;
},
{
glyphname = dieresis;
lastChange = "2024-05-07 16:45:18 +0000";
layers = (
{
anchors = (
{
name = _top;
pos = (177,466);
}
);
layerId = m01;
shapes = (
{
closed = 1;
nodes = (
(319,502,l),
(371,566,l),
(349,678,l),
(281,672,l),
(189,605,l),
(224,501,l)
);
},
{
closed = 1;
nodes = (
(90,492,l),
(182,558,l),
(147,663,l),
(54,662,l),
(0,598,l),
(23,486,l)
);
}
);
width = 371;
}
);
unicode = 168;
},
{
glyphname = dotaccent;
lastChange = "2024-05-07 16:45:18 +0000";
layers = (
{
anchors = (
{
name = _top;
pos = (120,481);
}
);
layerId = m01;
shapes = (
{
closed = 1;
nodes = (
(218,542,l),
(210,609,l),
(140,699,l),
(38,661,l),
(42,566,l),
(106,516,l)
);
}
);
width = 240;
}
);
unicode = 729;
},
{
glyphname = grave;
lastChange = "2024-05-07 16:45:18 +0000";
layers = (
{
anchors = (
{
name = _top;
pos = (129,448);
}
);
layerId = m01;
shapes = (
{
closed = 1;
nodes = (
(232,539,l),
(175,631,l),
(80,657,l),
(42,582,l),
(145,490,l),
(225,482,l)
);
}
);
width = 240;
}
);
unicode = 96;
},
{
glyphname = acute;
lastChange = "2024-05-07 16:45:18 +0000";
layers = (
{
anchors = (
{
name = _top;
pos = (117,448);
}
);
layerId = m01;
shapes = (
{
closed = 1;
nodes = (
(129,490,l),
(232,582,l),
(194,657,l),
(98,631,l),
(42,539,l),
(49,482,l)
);
}
);
width = 240;
}
);
unicode = 180;
},
{
glyphname = hungarumlaut;
lastChange = "2024-05-07 16:45:18 +0000";
layers = (
{
anchors = (
{
name = _top;
pos = (142,506);
}
);
layerId = m01;
shapes = (
{
closed = 1;
nodes = (
(19,526,l),
(106,526,l),
(205,684,l),
(166,746,l),
(114,741,l),
(0,566,l)
);
},
{
closed = 1;
nodes = (
(182,526,l),
(253,526,l),
(363,668,l),
(328,746,l),
(244,739,l),
(162,566,l)
);
}
);
width = 363;
}
);
unicode = 733;
},
{
glyphname = circumflex;
lastChange = "2024-05-07 16:45:18 +0000";
layers = (
{
anchors = (
{
name = _top;
pos = (189,455);
}
);
layerId = m01;
shapes = (
{
closed = 1;
nodes = (
(332,482,l),
(366,530,l),
(252,652,l),
(146,656,l),
(164,558,l),
(277,474,l)
);
},
{
closed = 1;
nodes = (
(180,532,l),
(198,630,l),
(92,626,l),
(-6,525,l),
(28,478,l),
(83,469,l)
);
}
);
width = 373;
}
);
unicode = 710;
},
{
glyphname = caron;
lastChange = "2024-05-07 16:45:18 +0000";
layers = (
{
anchors = (
{
name = _top;
pos = (175,460);
}
);
layerId = m01;
shapes = (
{
closed = 1;
nodes = (
(258,497,l),
(373,619,l),
(338,666,l),
(283,675,l),
(170,591,l),
(152,493,l)
);
},
{
closed = 1;
nodes = (
(186,617,l),
(90,680,l),
(34,671,l),
(0,624,l),
(98,522,l),
(205,518,l)
);
}
);
width = 373;
}
);
unicode = 711;
},
{
glyphname = breve;
lastChange = "2024-05-07 16:45:18 +0000";
layers = (
{
anchors = (
{
name = _top;
pos = (154,514);
}
);
layerId = m01;
shapes = (
{
closed = 1;
nodes = (
(33,669,l),
(102,661,l),
(112,612,l),
(154,595,l),
(177,611,l),
(199,673,l),
(270,680,l),
(294,669,l),
(281,574,l),
(206,531,l),
(74,522,l),
(0,575,l),
(0,638,l)
);
}
);
width = 294;
}
);
unicode = 728;
},
{
glyphname = ring;
lastChange = "2024-05-07 16:45:18 +0000";
layers = (
{
anchors = (
{
name = _top;
pos = (128,474);
}
);
layerId = m01;
shapes = (
{
closed = 1;
nodes = (
(116,522,l),
(103,577,l),
(136,632,l),
(98,646,l),
(22,633,l),
(14,552,l),
(62,487,l)
);
},
{
closed = 1;
nodes = (
(246,520,l),
(170,570,l),
(136,542,l),
(100,558,l),
(62,487,l),
(132,482,l),
(209,480,l)
);
},
{
closed = 1;
nodes = (
(246,582,l),
(250,642,l),
(155,630,l),
(155,574,l),
(150,552,l),
(156,534,l),
(246,520,l)
);
},
{
closed = 1;
nodes = (
(143,619,l),
(250,642,l),
(249,683,l),
(108,678,l),
(34,666,l),
(37,608,l)
);
}
);
width = 250;
}
);
unicode = 730;
},
{
glyphname = tilde;
lastChange = "2024-05-07 16:45:18 +0000";
layers = (
{
anchors = (
{
name = _top;
pos = (166,490);
}
);
layerId = m01;
shapes = (
{
closed = 1;
nodes = (
(50,504,l),
(73,509,l),
(86,549,l),
(118,581,l),
(158,543,l),
(207,506,l),
(238,515,l),
(291,591,l),
(291,692,l),
(258,709,l),
(202,647,l),
(153,680,l),
(99,715,l),
(31,674,l),
(0,538,l)
);
}
);
width = 291;
}
);
unicode = 732;
},
{
glyphname = macron;
lastChange = "2024-05-07 16:45:18 +0000";
layers = (
{
anchors = (
{
name = _top;
pos = (114,506);
}
);
layerId = m01;
shapes = (
{
closed = 1;
nodes = (
(-57,613,l),
(-34,526,l),
(149,520,l),
(254,526,l),
(283,580,l),
(253,657,l),
(-18,657,l)
);
}
);
width = 243;
}
);
unicode = 175;
},
{
glyphname = cedilla;
lastChange = "2024-05-07 16:45:18 +0000";
layers = (
{
anchors = (
{
name = _bottom;
pos = (148,70);
}
);
layerId = m01;
shapes = (
{
closed = 1;
nodes = (
(234,-238,l),
(234,-191,l),
(218,-142,l),
(162,-118,l),
(134,-159,l),
(87,-148,l),
(87,-89,l),
(134,-117,l),
(206,-54,l),
(195,95,l),
(49,103,l),
(50,23,l),
(101,-16,l),
(0,-49,l),
(-20,-159,l),
(18,-213,l),
(101,-246,l)
);
}
);
width = 240;
}
);
unicode = 184;
},
{
glyphname = ogonek;
lastChange = "2024-05-07 16:45:18 +0000";
layers = (
{
anchors = (
{
name = _bottom;
pos = (157,8);
}
);
layerId = m01;
shapes = (
{
closed = 1;
nodes = (
(279,-190,l),
(268,-158,l),
(186,-149,l),
(154,-39,l),
(233,7,l),
(233,58,l),
(141,56,l),
(141,6,l),
(29,-70,l),
(22,-169,l),
(144,-244,l)
);
}
);
width = 240;
}
);
unicode = 731;
},
{
export = 0;
glyphname = _i;
lastChange = "2024-05-07 16:45:18 +0000";
layers = (
{
anchors = (
{
name = right;
pos = (297,330);
}
);
layerId = m01;
shapes = (
{
closed = 1;
nodes = (
(307,12,l),
(306,84,l),
(262,145,l),
(262,330,l),
(270,526,l),
(25,485,l),
(16,407,l),
(41,372,l),
(78,361,l),
(78,130,l),
(46,95,l),
(46,30,l),
(102,-21,l)
);
}
);
width = 542;
}
);
},
